<?xml version="1.0" encoding="UTF-8" standalone="no"?>
<!-- Created with Inkscape (http://www.inkscape.org/) -->

<svg
   width="211.66669mm"
   height="423.33386mm"
   viewBox="0 0 211.66668 423.33386"
   version="1.1"
   id="svg1"
   xmlns="http://www.w3.org/2000/svg"
   xmlns:svg="http://www.w3.org/2000/svg">
  <defs
     id="defs1" />
  <path
     id="rect1"
     style="fill:#fff;stroke:#00ff00;stroke-width:0;stroke-linecap:round;stroke-linejoin:round"
     d="M -3.5474143e-6,-1.991514e-6 V 423.33386 H 211.66667 V -1.991514e-6 Z M 33.288916,174.43948 c 5.91391,0 10.7749,1.61721 14.58309,4.85139 3.8082,3.23417 6.02611,7.62003 6.65334,13.15733 h -9.4759 c -1.79209,-5.73331 -5.68984,-8.59999 -11.69335,-8.59999 -4.25621,0 -7.61639,1.64159 -10.08052,4.92477 -2.41932,3.28317 -3.62923,7.81582 -3.62923,13.59813 0,5.4883 1.29942,9.99657 3.89795,13.52476 2.64334,3.52819 6.00351,5.29218 10.08052,5.29218 0.62723,0 1.34433,-0.0737 2.15077,-0.22066 0.85125,-0.19601 1.85925,-0.53885 3.02411,-1.02888 1.16486,-0.53902 2.23999,-1.22522 3.22564,-2.05827 0.98565,-0.83304 1.85939,-1.98449 2.62103,-3.45457 0.76164,-1.51908 1.23208,-3.23432 1.41128,-5.14542 h -11.1559 v -9.18755 h 19.6236 v 28.96051 h -6.04872 l -1.20923,-7.05642 c -1.8817,2.98916 -3.98772,5.16965 -6.31744,6.54172 -2.32972,1.37207 -5.15233,2.05827 -8.4677,2.05827 -6.63074,0 -12.11881,-2.64624 -16.46463,-7.93853 -4.30102,-5.29229 -6.4517995,-12.00594 -6.4517995,-20.14038 0,-8.33045 2.1955295,-15.09285 6.5861595,-20.28713 4.39062,-5.19428 10.10297,-7.79126 17.13693,-7.79126 z m 31.31696,1.02888 h 10.08052 v 36.31148 c 0,6.37034 3.11351,9.55549 9.34103,9.55549 6.22752,0 9.34155,-3.18515 9.34155,-9.55549 V 175.46836 H 103.4495 v 36.31148 c 0,2.89116 -0.42568,5.48813 -1.27692,7.79126 -0.80645,2.25412 -1.8592,4.06739 -3.158474,5.43946 -1.29926,1.37207 -2.84535,2.49914 -4.63744,3.38119 -1.74729,0.88205 -3.47187,1.49459 -5.17436,1.83761 -1.65769,0.34302 -3.38279,0.51418 -5.17488,0.51418 -1.79209,0 -3.53957,-0.17116 -5.24206,-0.51418 -1.65768,-0.34302 -3.38227,-0.95556 -5.17436,-1.83761 -1.74729,-0.88205 -3.27048,-2.00912 -4.56975,-3.38119 -1.29926,-1.37207 -2.37491,-3.18534 -3.22616,-5.43946 -0.80644,-2.30313 -1.20922,-4.9001 -1.20922,-7.79126 z m 49.595944,0 h 10.08052 v 20.06699 h 19.35437 v -20.06699 h 10.14771 v 53.58485 h -10.08053 v -24.32979 h -19.42155 v 24.32979 h -10.08052 z m 61.69288,0 h 11.15539 l 16.9354,53.58485 h -10.34924 l -3.22564,-10.80503 h -18.34669 l -3.29282,10.80503 h -10.28206 z m 5.3759,12.64316 -6.38411,20.94859 h 12.76873 z" />
</svg>
