<?xml version="1.0" encoding="UTF-8" standalone="no"?>
<svg
   width="200.00018mm"
   height="150.00015mm"
   viewBox="0 0 200.00018 150.00015"
   version="1.1"
   id="svg1"
   sodipodi:docname="see_through.svg"
   inkscape:version="1.3.2 (091e20e, 2023-11-25)"
   xmlns:inkscape="http://www.inkscape.org/namespaces/inkscape"
   xmlns:sodipodi="http://sodipodi.sourceforge.net/DTD/sodipodi-0.dtd"
   xmlns="http://www.w3.org/2000/svg"
   xmlns:svg="http://www.w3.org/2000/svg">
  <sodipodi:namedview
     id="namedview1"
     pagecolor="#ffffff"
     bordercolor="#000000"
     borderopacity="0.25"
     inkscape:showpageshadow="2"
     inkscape:pageopacity="0.0"
     inkscape:pagecheckerboard="0"
     inkscape:deskcolor="#d1d1d1"
     inkscape:document-units="mm"
     inkscape:zoom="0.36953435"
     inkscape:cx="-265.19862"
     inkscape:cy="213.78256"
     inkscape:window-width="1910"
     inkscape:window-height="1044"
     inkscape:window-x="0"
     inkscape:window-y="0"
     inkscape:window-maximized="1"
     inkscape:current-layer="svg1" />
  <defs
     id="defs1">
    <rect
       x="-880.58847"
       y="60.378309"
       width="698.35542"
       height="470.75146"
       id="rect2" />
  </defs>
  <g
     id="layer1"
     transform="translate(-5.1009804,-55.136168)">
    <path
       id="see_through"
       style="fill:#baaf84;fill-opacity:1;stroke:#00ff00;stroke-width:0"
       d="M 5.1009806,55.136169 V 205.13632 H 205.10118 V 55.136169 Z M 48.728809,110.47284 c 4.562738,0 8.313382,1.21557 11.251509,3.64681 2.938127,2.43124 4.649093,5.7283 5.13302,9.89087 h -7.310665 c -1.382648,-4.30992 -4.390317,-6.46472 -9.022188,-6.46472 -3.283789,0 -5.876162,1.23402 -7.777303,3.7021 -1.866575,2.46807 -2.799829,5.87536 -2.799829,10.22211 0,4.12574 1.002728,7.51457 3.007568,10.16682 2.039406,2.65226 4.631779,3.97857 7.777303,3.97857 0.483927,0 1.036622,-0.0554 1.658814,-0.16588 0.656758,-0.14735 1.434986,-0.40523 2.333707,-0.7736 0.898722,-0.4052 1.728281,-0.92096 2.488737,-1.54719 0.760457,-0.62623 1.434474,-1.49163 2.022099,-2.59674 0.587626,-1.14194 0.950558,-2.43134 1.088823,-3.86798 h -8.607227 v -6.90707 h 15.140161 v 21.77076 h -4.666382 l -0.933276,-5.30458 c -1.45178,2.24705 -3.076679,3.88661 -4.874121,4.91804 -1.797443,1.03144 -3.975036,1.54719 -6.532935,1.54719 -5.115798,0 -9.350179,-1.9892 -12.7031,-5.96759 -3.318356,-3.97839 -4.977474,-9.02523 -4.977474,-15.14016 0,-6.26228 1.693856,-11.34604 5.081343,-15.25075 3.387488,-3.90471 7.794522,-5.85701 13.221416,-5.85701 z m 24.161832,0.7736 h 7.777303 v 27.29652 c 0,4.7888 2.40261,7.18303 7.207312,7.18303 4.804702,0 7.206796,-2.39423 7.206796,-7.18303 v -27.29652 h 7.777298 v 27.29652 c 0,2.17338 -0.32819,4.12568 -0.98495,5.85701 -0.62219,1.6945 -1.43464,3.05721 -2.437059,4.08864 -1.00242,1.03143 -2.194911,1.8789 -3.577559,2.54196 -1.348082,0.66307 -2.679006,1.12346 -3.992521,1.38132 -1.27895,0.25785 -2.609357,0.38654 -3.992005,0.38654 -1.382648,0 -2.730682,-0.12869 -4.044197,-0.38654 -1.27895,-0.25786 -2.609873,-0.71825 -3.992521,-1.38132 -1.348082,-0.66306 -2.523464,-1.51053 -3.525883,-2.54196 -1.00242,-1.03143 -1.83198,-2.39414 -2.488737,-4.08864 -0.622192,-1.73133 -0.933277,-3.68363 -0.933277,-5.85701 z m 38.264849,0 h 7.7773 v 15.08487 h 14.93242 v -15.08487 h 7.8295 v 40.28126 h -7.7773 v -18.28932 h -14.98462 v 18.28932 h -7.7773 z m 47.59761,0 h 8.60671 l 13.06639,40.28126 h -7.98505 l -2.48873,-8.1225 h -14.15469 l -2.54093,8.1225 h -7.93285 z m 4.14807,9.50381 -4.9258,15.74788 h 9.85108 z" />
  </g>
  <path
     id="rect1"
     style="fill:#1a3636;stroke:#00ff00;stroke-width:0;stroke-linecap:round;stroke-linejoin:round"
     d="m -308.84244,-194.13812 v 423.33386 h 211.666671 v -423.33386 z m 33.28892,174.439485 c 5.91391,0 10.7749,1.617208 14.58309,4.851383 3.8082,3.234175 6.02611,7.6200361 6.65334,13.1573351 h -9.4759 c -1.79209,-5.733309 -5.68984,-8.5999901 -11.69335,-8.5999901 -4.25621,0 -7.61639,1.6415861 -10.08052,4.9247641 -2.41932,3.283177 -3.62923,7.815823 -3.62923,13.598136 0,5.4882969 1.29942,9.9965649 3.89795,13.5247559 2.64334,3.528191 6.00351,5.292183 10.08052,5.292183 0.62723,0 1.34433,-0.07365 2.15077,-0.220658 0.85125,-0.196011 1.85925,-0.538851 3.02411,-1.028878 1.16486,-0.539029 2.23999,-1.225227 3.22564,-2.058272 0.98565,-0.833045 1.85939,-1.98449 2.62103,-3.45457 0.76164,-1.519082 1.23208,-3.234318 1.41128,-5.145422 h -11.1559 V 5.9545791 h 19.6236 V 34.915088 h -6.04872 l -1.20923,-7.05642 c -1.8817,2.98916 -3.98772,5.16965 -6.31744,6.54172 -2.32972,1.37207 -5.15233,2.05827 -8.4677,2.05827 -6.63074,0 -12.11881,-2.64624 -16.46463,-7.93853 -4.30102,-5.292288 -6.4518,-12.005933 -6.4518,-20.1403739 0,-8.33045203 2.19553,-15.092852 6.58616,-20.2871341 4.39062,-5.194281 10.10297,-7.791255 17.13693,-7.791255 z m 31.31696,1.028877 h 10.08052 v 36.311479 c 0,6.370345 3.11351,9.555489 9.34103,9.555489 6.22752,0 9.34155,-3.185144 9.34155,-9.555489 v -36.311479 h 10.08052 v 36.311479 c 0,2.891157 -0.42568,5.488131 -1.27692,7.791256 -0.80645,2.254122 -1.8592,4.067391 -3.15847,5.439461 -1.29926,1.37207 -2.84535,2.49914 -4.63744,3.38119 -1.74729,0.88205 -3.47187,1.49459 -5.17436,1.83761 -1.65769,0.34302 -3.38279,0.51418 -5.17488,0.51418 -1.79209,0 -3.53957,-0.17116 -5.24206,-0.51418 -1.65768,-0.34302 -3.38227,-0.95556 -5.17436,-1.83761 -1.74729,-0.88205 -3.27048,-2.00912 -4.56975,-3.38119 -1.29926,-1.37207 -2.37491,-3.185339 -3.22616,-5.439461 -0.80644,-2.303125 -1.20922,-4.900099 -1.20922,-7.791256 z m 49.59594,0 h 10.08052 V 1.3972341 h 19.35437 V -18.669758 h 10.14771 v 53.584846 h -10.08053 V 10.585304 h -19.42155 v 24.329784 h -10.08052 z m 61.69288,0 h 11.15539 l 16.9354,53.584846 h -10.34924 l -3.22564,-10.805028 h -18.34669 l -3.29282,10.805028 h -10.28206 z m 5.3759,12.6431561 -6.38411,20.9485919 h 12.76873 z"
     inkscape:export-filename="see_through_mobile.svg"
     inkscape:export-xdpi="96"
     inkscape:export-ydpi="96" />
</svg>
