<?xml version="1.0" encoding="UTF-8" standalone="no"?>
<svg
   version="1.1"
   id="svg1"
   width="282.71246"
   height="224.0033"
   viewBox="0 0 282.71246 224.00329"
   xmlns="http://www.w3.org/2000/svg"
   xmlns:svg="http://www.w3.org/2000/svg">
  <defs
     id="defs1" />
  <g
     id="g1"
     transform="translate(-20.531786,-10.23465)">
    <path
       style="fill:#D6BD98"
       d="m 197.82192,234.0118 c -5.48413,-1.04802 2.35729,-6.1718 9.44531,-6.1718 H 210.24 l 0.002,-8.08 c 0.002,-9.83403 0.47866,-30.35033 1.12011,-48.24 0.26189,-7.304 0.47658,-18.21652 0.47709,-24.25004 8e-4,-9.57352 0.0635,-10.99408 0.49284,-11.15881 0.57543,-0.22081 1.74808,0.73395 1.74808,1.42327 0,0.26138 0.63163,2.29106 1.40361,4.51041 0.77199,2.21934 2.58513,8.28317 4.0292,13.47517 4.87073,17.51218 12.15437,39.1901 20.80474,61.92 1.60754,4.224 3.10755,8.472 3.33336,9.44 0.36822,1.57849 0.4899,1.75048 1.17983,1.6677 9.66922,-1.16015 15.06821,0.18097 11.79984,2.93112 -2.36732,1.99198 -13.46168,1.96338 -13.84744,-0.0357 -0.41052,-2.12741 -1.9442,-6.73795 -3.28758,-9.88311 -2.46114,-5.7621 -3.77569,-9.19744 -7.27044,-19.00003 -8.3702,-23.4779 -10.77919,-30.97985 -15.10529,-47.04 -3.57291,-13.26399 -3.30993,-13.22622 -3.34275,-0.48 -0.0154,5.984 -0.16267,14.048 -0.32725,17.92 -0.33126,7.79303 -0.88345,31.76175 -1.10205,47.83563 -0.14138,10.39562 -0.14138,10.39562 -0.98437,11.0678 -2.13368,1.70133 -9.64494,2.893 -13.54149,2.14837 z m 5.91492,-0.74658 c 2.56037,-0.34243 6.0349,-1.20015 5.80262,-1.43242 -0.0711,-0.0711 -0.8426,0.0865 -1.71439,0.35034 -5.05644,1.53017 -11.05103,0.79206 -9.34507,-1.15065 0.22,-0.25053 0.076,-0.18501 -0.32,0.1456 -1.00247,0.83693 -0.93024,1.72335 0.16,1.96381 0.484,0.10675 1.024,0.24212 1.2,0.30083 0.60828,0.20291 1.72346,0.15597 4.21684,-0.17751 z m 2.66316,-1.6423 c 4.32613,-0.81593 4.75518,-1.79998 0.8,-1.83487 -3.78689,-0.0334 -9.58055,1.7314 -7.36,2.24193 1.10537,0.25413 4.00992,0.0739 6.56,-0.40706 z m 47.74491,0.11459 c 0.2997,-0.11963 -1.96345,-0.21751 -5.02923,-0.21751 -3.06577,0 -5.32698,0.0979 -5.02491,0.21751 0.30208,0.11963 2.56523,0.21751 5.02923,0.21751 2.464,0 4.72521,-0.0979 5.02491,-0.21751 z M 210.24,231.52 c 0,-0.088 -0.072,-0.16 -0.16,-0.16 -0.088,0 -0.16,0.072 -0.16,0.16 0,0.088 0.072,0.16 0.16,0.16 0.088,0 0.16,-0.072 0.16,-0.16 z m 1.28266,-7.31918 c 0.004,-9.62981 0.56951,-35.23322 1.14595,-51.88082 0.28033,-8.096 0.46057,-18.392 0.40054,-22.88 -0.15801,-11.81239 0.20062,-11.43576 4.57046,4.8 3.1362,11.65223 4.60857,16.5727 7.94766,26.56 5.4282,16.23589 11.43509,32.85409 13.95834,38.61608 0.83429,1.90516 1.99303,4.90392 2.57497,6.66392 0.58194,1.76 1.06288,2.94801 1.06875,2.64002 0.015,-0.78909 -1.48347,-5.21926 -3.97783,-11.76002 -7.30242,-19.14853 -15.68065,-43.95063 -19.51152,-57.76 -1.51356,-5.456 -3.64923,-12.65144 -4.74595,-15.98986 -2.45872,-7.48439 -2.39602,-7.73031 -2.44542,9.58986 -0.0191,6.688 -0.17194,15.256 -0.33969,19.04 -0.38081,8.58991 -0.88364,28.00221 -1.14386,44.16 -0.10912,6.776 -0.24328,12.36487 -0.29811,12.41971 -0.0548,0.0548 -1.66284,0.14639 -3.57333,0.20343 -2.1222,0.0634 -4.03386,0.30336 -4.91362,0.61689 -0.792,0.28225 -1.08,0.42493 -0.64,0.31706 4.37984,-1.07369 10.24062,-0.30341 9.30859,1.22342 -0.4138,0.67787 -0.40713,0.7029 0.08,0.30031 0.46289,-0.38256 0.53175,-1.26962 0.53407,-6.88 z m 44.05067,6.94585 c -0.11733,-0.11733 -0.30933,-0.11733 -0.42666,0 -0.11734,0.11733 -0.0213,0.21333 0.21333,0.21333 0.23467,0 0.33067,-0.096 0.21333,-0.21333 z m -0.84303,-0.71091 c 0.94492,-0.37714 -6.4157,-0.48672 -8.4903,-0.1264 -1.28,0.22231 -1.28,0.22231 -0.32,0.46119 1.26735,0.31536 7.80368,0.067 8.8103,-0.33479 z M 199.36,230.56 c 0,-0.088 -0.072,-0.16 -0.16,-0.16 -0.088,0 -0.16,0.072 -0.16,0.16 0,0.088 0.072,0.16 0.16,0.16 0.088,0 0.16,-0.072 0.16,-0.16 z m 0.64,-0.32 c 0,-0.088 -0.072,-0.16 -0.16,-0.16 -0.088,0 -0.16,0.072 -0.16,0.16 0,0.088 0.072,0.16 0.16,0.16 0.088,0 0.16,-0.072 0.16,-0.16 z m 56.64,-0.30496 c 0,-0.70106 -2.06504,-1.13754 -5.12,-1.08218 -2.72,0.0493 -2.72,0.0493 0.77679,0.25671 2.78491,0.1652 3.56633,0.31766 3.83836,0.74893 0.4177,0.66219 0.50485,0.6754 0.50485,0.0765 z m -56,-0.015 c 0,-0.088 -0.072,-0.16 -0.16,-0.16 -0.088,0 -0.16,0.072 -0.16,0.16 0,0.088 0.072,0.16 0.16,0.16 0.088,0 0.16,-0.072 0.16,-0.16 z m 43.52,0.0342 c 0,-0.0692 -0.216,-0.20865 -0.48,-0.30996 -0.264,-0.1013 -0.48,-0.0447 -0.48,0.12577 0,0.17047 0.216,0.30995 0.48,0.30995 0.264,0 0.48,-0.0566 0.48,-0.12576 z m 1.17333,-0.40757 c -0.11733,-0.11733 -0.30933,-0.11733 -0.42666,0 -0.11734,0.11733 -0.0213,0.21333 0.21333,0.21333 0.23467,0 0.33067,-0.096 0.21333,-0.21333 z M 247.6,229.21942 c -0.308,-0.0805 -0.812,-0.0805 -1.12,0 -0.308,0.0805 -0.056,0.14634 0.56,0.14634 0.616,0 0.868,-0.0658 0.56,-0.14634 z M 213.76,142.56 c 0,-0.088 -0.072,-0.16 -0.16,-0.16 -0.088,0 -0.16,0.072 -0.16,0.16 0,0.088 0.072,0.16 0.16,0.16 0.088,0 0.16,-0.072 0.16,-0.16 z M 28.352687,230.80602 c -0.128688,-0.12869 -0.130068,-26.12069 -0.0031,-57.76 L 28.580501,115.52 H 24.36019 c -6.368047,0 -7.218634,1.1142 16.839775,-22.058695 l 7.12,-6.857935 -0.04055,-7.701684 C 48.190362,61.979716 47.933434,57.133269 47.119298,57.017652 46.102817,56.8733 45.691113,55.89972 45.642281,53.524867 c -0.0615,-2.990961 -0.663195,-2.834255 11.711818,-3.050229 13.410866,-0.234051 12.910628,-0.325687 12.802496,2.345223 -0.132574,3.274674 -0.41065,3.952492 -1.698499,4.14014 -1.098096,0.16 -1.098096,0.16 -1.18591,5.740044 l -0.08781,5.580043 2.327814,-2.212022 C 70.792484,64.851453 75.296,60.535101 79.52,56.476172 93.76999,42.78306 95.052667,41.600001 95.648787,41.600001 c 0.363028,0 8.363723,7.883618 20.540573,20.24 10.97025,11.132 23.35155,23.696 27.51398,27.92 8.34121,8.464578 8.73839,8.986437 6.62352,8.702775 -1.24815,-0.167412 -1.72371,-0.550886 -5.51,-4.443001 C 142.53769,91.6769 132.5928,81.552001 122.71712,71.520001 112.84143,61.488001 102.69115,51.160532 100.16094,48.570069 l -4.600393,-4.709931 -1.780274,1.643574 C 92.801123,46.407677 89.696,49.388724 86.88,52.128261 84.064,54.867797 79.312,59.485092 76.32,62.388916 67.229157,71.211846 59.963805,78.273935 54.08,84.006708 41.143886,96.610763 26.300168,111.00726 24.96,112.24937 l -1.44,1.33463 69.44,-0.0145 c 38.192,-0.008 69.69518,-0.11537 70.00706,-0.23866 0.46366,-0.1833 -0.29485,-1.12074 -4.16,-5.1413 -5.25085,-5.46197 -5.59646,-5.98841 -3.73292,-5.686 1.03524,0.168 1.91267,0.88738 5.81453,4.76715 8.29441,8.24748 8.2947,8.2493 1.32977,8.2493 H 157.44 v 57.376 c 0,44.19911 -0.0882,57.46419 -0.384,57.76 -0.43282,0.43282 -128.271502,0.58183 -128.703313,0.15002 z M 155.36,230.13614 c 1.28,-0.22699 1.28,-0.22699 1.36087,-57.74156 l 0.0809,-57.51458 4.39913,-0.005 c 6.24127,-0.007 6.23749,0.30427 0.0725,-5.97256 -2.90035,-2.95295 -5.30936,-5.43205 -5.35336,-5.50911 -0.044,-0.077 -0.14081,-0.0793 -0.21513,-0.005 -0.0743,0.0743 2.00692,2.36632 4.625,5.09333 2.61807,2.72701 4.76688,5.1382 4.77513,5.3582 0.012,0.31885 -14.46703,0.4 -71.368464,0.4 -58.597503,0 -71.364931,-0.0749 -71.28,-0.41813 0.05691,-0.22998 3.271464,-3.49798 7.143464,-7.26222 3.872,-3.76425 9.416,-9.159591 12.32,-11.989654 2.904,-2.830063 12.552,-12.194353 21.44,-20.809532 8.888,-8.61518 18.323714,-17.827675 20.968253,-20.472213 4.608235,-4.608233 3.152224,-3.258568 -6.248253,5.79188 -13.159313,12.669323 -11.68,12.188056 -11.68,3.79987 0,-6.4 0,-6.4 1.117204,-6.506033 1.148637,-0.109016 1.604517,-0.49449 1.577612,-1.333967 -0.0085,-0.264336 -0.146785,-0.152795 -0.307842,0.248255 -0.292458,0.728255 -0.292458,0.728255 -11.164009,0.64 C 48.142479,55.851293 45.139967,55.99003 48,56.372904 c 0.8,0.107097 0.8,0.107097 0.883034,15.482616 l 0.08303,15.375519 -6.643034,6.383208 C 32.218166,103.32389 21.12,114.31553 21.12,114.61377 c 0,0.14643 1.8,0.26623 4,0.26623 h 4 v 57.76 57.76 l 62.48,-0.0184 c 34.364,-0.0101 63.056,-0.12058 63.76,-0.24542 z M 29.819567,229.49293 C 29.698805,229.19982 29.6,203.328 29.6,172 v -56.96 h 63.36 63.36 l -0.006,3.6 c -0.004,1.98 -0.0395,27.792 -0.08,57.36 l -0.0736,53.76 h -21.92 -21.92 v -30.22111 c 0,-16.62162 -0.108,-30.2879 -0.24,-30.36953 -0.132,-0.0816 -0.19427,8.00988 -0.13838,17.98112 0.0559,9.97124 0.003,23.63752 -0.11743,30.36952 l -0.21904,12.24 H 93.719368 75.833586 l 0.08321,-30.40594 c 0.06582,-24.05116 0.0013,-30.29391 -0.308682,-29.86993 -0.302483,0.41373 -0.392567,7.32512 -0.394858,30.29413 -0.0016,16.36697 -0.04128,29.78924 -0.08811,29.82727 -0.561509,0.45604 -45.116918,0.3453 -45.305576,-0.1126 z M 74.56,199.23545 c 0,-28.15828 0.03285,-29.92511 0.568671,-30.58683 0.584202,-0.72145 34.501409,-1.25047 36.899499,-0.57553 1.01931,0.28689 1.25183,7.8613 1.25183,40.7791 V 229.12 h 21.12 21.12 v -56.59111 -56.5911 l -3.6,-0.20744 c -1.98,-0.11409 -30.132,-0.20809 -62.56,-0.20889 L 30.4,115.52 v 56.8 56.8 h 22.08 22.08 z m 31.28,-38.81603 c -0.75882,-0.1983 -0.88015,-36.23536 -0.12411,-36.86281 0.31579,-0.26208 5.62823,-0.33901 19.28,-0.27918 l 18.84411,0.0826 0.0827,17.68 c 0.0721,15.42065 0.1437,17.68 0.56,17.68 0.6927,0 0.58574,1.19944 -0.14167,1.58874 -0.61065,0.32681 -37.27072,0.4322 -38.50104,0.11068 z m 37.68714,-1.25799 C 143.10289,158.73718 143.04,156.42581 143.04,141.25714 V 123.84 h -18.13333 c -9.97334,0 -18.06911,0.0642 -17.9906,0.14274 0.0785,0.0785 7.6985,0.16855 16.93333,0.2001 9.23483,0.0315 17.2586,0.12766 17.8306,0.21358 0.99031,0.14876 1.66784,30.71712 0.75368,34.00358 -0.22253,0.8 -0.22253,0.8 -18.12811,0.8 H 106.4 l 0.11032,-17.55762 c 0.0796,-12.66195 0.0126,-17.49725 -0.24,-17.34111 -0.24688,0.15257 -0.35032,5.40687 -0.35032,17.79429 v 17.57778 l 14,0.0833 c 20.20238,0.12025 24.2213,0.0189 23.60714,-0.59524 z m -5.65738,-0.6506 3.89024,-0.20918 V 141.71083 125.12 H 124.48 107.2 v 16.8 16.8 h 13.38976 c 7.36437,0 15.14037,-0.0941 17.28,-0.20917 z m -92.653006,1.25893 c -1.466953,-0.18323 -2.202802,-33.68456 -0.777572,-35.40088 0.581078,-0.69975 37.46911,-0.82654 37.496551,-0.12888 0.299301,7.60953 -0.132518,34.71865 -0.560564,35.19164 -0.486014,0.53704 -32.192298,0.83353 -36.158415,0.33812 z M 80.896,158.656 c 0.288877,-0.28888 0.384,-4.52978 0.384,-17.12 V 124.8 l -11.44,-0.08 c -14.519008,-0.10153 -24.478312,0.0303 -24.776097,0.32804 -0.127616,0.12758 7.8608,0.23196 17.752034,0.23196 H 80.8 l -0.122047,16.48 c -0.06713,9.064 -0.183625,16.588 -0.258886,16.72 -0.218837,0.38382 -34.278352,0.29501 -35.000104,-0.0913 C 44.93195,158.1281 44.8,158.16221 44.8,158.54874 c 0,0.6521 35.44584,0.75742 36.096,0.10726 z M 80,141.76 v -16 H 62.898885 c -9.405613,0 -17.145613,0.108 -17.2,0.24 -0.05439,0.132 -0.05648,7.332 -0.0047,16 l 0.09423,15.76 H 62.894227 80 Z m 31.04,57.76 v -29.6 H 93.76 76.48 v 29.6 29.6 h 17.28 17.28 z m -7.89748,-30.79972 c -4.607621,-0.0499 -12.239621,-0.05 -16.960005,-9e-5 -4.720383,0.0499 -0.950515,0.0908 8.377485,0.0908 9.328,5e-5 13.19013,-0.0408 8.58252,-0.0907 z M 49.356757,71.142682 49.44,56.480001 l 8.24,-0.0854 8.24,-0.0854 v 7.285901 7.2859 l -7.675722,7.359502 c -4.221647,4.047726 -7.967106,7.405709 -8.323243,7.462183 -0.643115,0.101983 -0.646955,0.0029 -0.564278,-14.56 z M 58.763866,76.562768 65.28,70.278039 V 63.77902 57.280001 h -7.52 -7.52 v 13.628446 c 0,13.628446 0,13.628446 1.003866,12.783748 0.552127,-0.464583 3.936127,-3.672826 7.52,-7.129427 z m 86.327384,15.837233 c -2.82781,-2.86 -9.95083,-10.096 -15.82894,-16.08 -18.35822,-18.688928 -33.398672,-33.76 -33.691413,-33.76 -0.154573,0 -1.170138,0.9 -2.25681,2 -1.732326,1.753571 -1.756432,1.793 -0.195648,0.32 0.979066,-0.924 2.008829,-1.68 2.288363,-1.68 0.544347,0 19.333588,18.842168 49.221348,49.36 2.71477,2.772 5.08638,5.04 5.27026,5.04 0.18387,0 -1.97935,-2.34 -4.80716,-5.2 z M 46.784385,53.070544 C 46.836973,52.251344 46.772,51.647842 46.64,51.72943 c -0.132,0.08159 -0.223296,0.967843 -0.20288,1.969456 0.0406,1.992019 0.197247,1.708589 0.347265,-0.628342 z m 21.159817,2.049457 c 1.349485,-2.281263 0.610102,-2.96 -3.224479,-2.96 -12.200754,0 -17.360018,0.371865 -17.354823,1.250887 0.0096,1.627357 -0.07037,1.612643 9.290734,1.709214 4.831402,0.04984 9.315868,0.124209 9.965481,0.16526 0.649613,0.04105 1.245002,-0.03336 1.323087,-0.165361 z m 1.397555,-2.23391 c -0.08113,-0.31135 -0.152852,-0.13409 -0.159373,0.39391 -0.0065,0.528 0.05986,0.78274 0.147516,0.56609 0.08765,-0.216651 0.09299,-0.648651 0.01186,-0.96 z M 69.76,51.840001 c 0,-0.176 -0.144,-0.32 -0.32,-0.32 -0.176,0 -0.32,0.144 -0.32,0.32 0,0.176 0.144,0.32 0.32,0.32 0.176,0 0.32,-0.144 0.32,-0.32 z m -8.897736,-0.559049 c -1.989754,-0.05623 -5.157754,-0.05604 -7.04,4.4e-4 -1.882245,0.05648 -0.254264,0.102487 3.617736,0.102245 3.872,-2.42e-4 5.412019,-0.04645 3.422264,-0.102685 z M 288.96,182.15139 c 0,-0.13674 0.59404,-1.03674 1.32009,-2 0.72605,-0.96326 1.53552,-2.25539 1.79883,-2.87139 0.83092,-1.94394 0.93107,-2.07771 1.63376,-2.18225 1.60576,-0.2389 0.39851,3.37655 -1.94374,5.82105 -1.25488,1.30967 -2.80894,1.99161 -2.80894,1.23259 z M 292,179.52 c 0.10877,-0.176 0.12577,-0.32 0.0378,-0.32 -0.088,0 -0.249,0.144 -0.35777,0.32 -0.10877,0.176 -0.12577,0.32 -0.0378,0.32 0.088,0 0.249,-0.144 0.35777,-0.32 z m 0.8,-1.12 c 0,-0.088 -0.072,-0.16 -0.16,-0.16 -0.088,0 -0.16,0.072 -0.16,0.16 0,0.088 0.072,0.16 0.16,0.16 0.088,0 0.16,-0.072 0.16,-0.16 z m 0.32,-0.64 c 0,-0.088 -0.072,-0.16 -0.16,-0.16 -0.088,0 -0.16,0.072 -0.16,0.16 0,0.088 0.072,0.16 0.16,0.16 0.088,0 0.16,-0.072 0.16,-0.16 z m 0.21333,-1.01333 C 293.216,176.62934 293.12,176.72534 293.12,176.96 c 0,0.23467 0.096,0.33067 0.21333,0.21334 0.11734,-0.11734 0.11734,-0.30934 0,-0.42667 z M 284.8,180.76702 c 0,-0.19414 0.6688,-1.09414 1.48623,-2 1.81682,-2.01337 2.35377,-3.22367 2.35377,-5.30548 0,-1.28802 0.12845,-1.66777 0.66046,-1.95249 2.15003,-1.15066 2.10127,3.48713 -0.0698,6.64274 -1.4178,2.06069 -4.43061,3.83905 -4.43061,2.61523 z m 2.56,-1.72702 c 0.59705,-0.616 1.01355,-1.12 0.92555,-1.12 -0.088,0 -0.6485,0.504 -1.24555,1.12 -0.59705,0.616 -1.01355,1.12 -0.92555,1.12 0.088,0 0.6485,-0.504 1.24555,-1.12 z m 1.6,-1.92 c 0,-0.088 -0.072,-0.16 -0.16,-0.16 -0.088,0 -0.16,0.072 -0.16,0.16 0,0.088 0.072,0.16 0.16,0.16 0.088,0 0.16,-0.072 0.16,-0.16 z m 0.32,-0.64 c 0,-0.088 -0.072,-0.16 -0.16,-0.16 -0.088,0 -0.16,0.072 -0.16,0.16 0,0.088 0.072,0.16 0.16,0.16 0.088,0 0.16,-0.072 0.16,-0.16 z m 0.6351,-2.85333 c 0.007,-2.12568 -0.34468,-1.65523 -0.45007,0.60272 -0.0487,1.04275 0.0275,1.62905 0.18045,1.38798 0.1456,-0.22955 0.26692,-1.12537 0.26962,-1.9907 z m -10.32378,2.91728 c -0.26525,-0.40483 -1.37052,-2.508 -2.45616,-4.6737 l -1.97387,-3.93764 0.0286,-23.91288 0.0286,-23.91289 -1.36923,-0.40418 c -9.38918,-2.77159 -14.42985,-20.673207 -8.2284,-29.222659 0.35108,-0.484 0.51455,-0.88 0.36327,-0.88 -2.49245,0 -7.45951,-7.867747 -7.97986,-12.64 -0.31726,-2.90955 -0.18223,-2.961661 -5.55369,2.143288 -6.61865,6.290266 -17.65076,14.656712 -19.32653,14.656712 -1.56425,0 -19.68403,-14.151402 -19.68403,-15.373062 0,-2.471045 0.60756,-2.185304 7.62762,3.587313 12.9921,10.683459 12.41034,10.607992 22.13238,2.871037 4.45547,-3.545732 12.35316,-11.336357 12.63647,-12.465161 0.11571,-0.461011 0.70854,-1.516833 1.3174,-2.346272 0.60887,-0.82944 1.33271,-2.274373 1.60854,-3.210963 7.10521,-24.125873 43.2304,-18.986342 43.13705,6.137108 -0.0205,5.513929 -3.3057,13.44 -5.57064,13.44 -0.57508,0 -0.54919,0.11554 0.31177,1.391241 6.33824,9.391491 3.10832,26.036348 -5.848,30.136688 -1.77573,0.81296 -1.77573,0.81296 -2.00493,4.95717 -0.21783,3.93866 -0.49576,4.94414 -1.31398,4.75364 -1.79007,-0.41677 -2.13707,0.46841 -0.75368,1.92265 1.5249,1.60301 1.66957,2.76107 0.48405,3.87481 -0.79596,0.74776 -0.79596,0.74776 0.3331,2.12563 2.17088,2.64927 2.11729,3.96778 -0.20028,4.92775 -1.09234,0.45246 -1.09081,0.44441 -0.43033,2.27019 1.10242,3.04741 0.42021,12.72386 -0.98255,13.93645 -1.17798,1.01828 -1.17798,1.01828 -0.35099,2.23531 1.03886,1.52882 1.04607,2.4785 0.0265,3.49802 -0.76747,0.76748 -0.77977,0.84046 -0.29847,1.7712 2.55402,4.93893 -2.87346,16.67192 -5.70975,12.3432 z m 2.27154,-0.64185 c -0.23257,-0.22985 -0.63886,-0.50019 -0.90286,-0.60076 -0.264,-0.10056 -1.38,-1.90854 -2.48,-4.01773 l -2,-3.83488 v -24.21122 c 0,-24.21123 0,-24.21123 -0.88,-24.55451 -6.94621,-2.70966 -10.67693,-8.0387 -11.28729,-16.123 l -0.26575,-3.519999 0.0942,3.839999 c 0.20809,8.48023 4.02572,14.43852 10.34062,16.13894 1.3582,0.36573 1.3582,0.36573 1.3582,24.37505 v 24.00931 l 2.2622,4.45835 c 2.15075,4.2387 2.30954,4.45835 3.22286,4.45835 0.793,0 0.88686,-0.0729 0.5378,-0.4179 z M 283.52,175.2 c 0,-0.088 -0.072,-0.16 -0.16,-0.16 -0.088,0 -0.16,0.072 -0.16,0.16 0,0.088 0.072,0.16 0.16,0.16 0.088,0 0.16,-0.072 0.16,-0.16 z m -0.7895,-4.54292 c 0.21506,-4.27508 0.36337,-4.85825 1.29499,-5.09207 0.99381,-0.24943 1.01719,-0.72265 0.0263,-0.53324 -0.99669,0.19053 -3.26708,-1.87352 -2.95509,-2.68654 0.18589,-0.48441 0.1324,-0.4784 -0.45248,0.0509 -0.66327,0.60026 -0.66327,0.60026 0.67085,1.95963 1.27491,1.29905 1.67171,6.86392 0.71365,10.00861 -0.13194,0.43311 -0.10099,0.42874 0.19342,-0.0273 0.19278,-0.29861 0.42152,-1.95461 0.50832,-3.68 z M 283.84,174.56 c 0,-0.088 -0.072,-0.16 -0.16,-0.16 -0.088,0 -0.16,0.072 -0.16,0.16 0,0.088 0.072,0.16 0.16,0.16 0.088,0 0.16,-0.072 0.16,-0.16 z m -2.25181,-4.33235 c 0.29988,-3.95072 0.29988,-3.95072 -0.96416,-5.32203 -1.01033,-1.09609 -1.26403,-1.2443 -1.26403,-0.73847 0,0.90098 -1.15275,0.82913 -1.39831,-0.0871 -0.73811,-2.75426 0.0198,-42.8 0.81007,-42.8 0.64854,0 0.62941,-0.8346 0.58847,25.66335 -0.0162,10.46336 -0.0162,10.46336 0.8718,9.58616 0.48838,-0.48246 1.2011,-1.09292 1.58382,-1.35657 1.10306,-0.75989 1.20716,-10.64951 0.13399,-12.72997 -0.9434,-1.8289 -0.7101,-2.70413 0.92132,-3.45633 1.52046,-0.70105 1.50822,-0.62557 0.32884,-2.02664 -0.94278,-1.12 -0.94278,-1.12 -0.95139,-0.11918 -0.009,1.05457 -0.71001,1.91678 -1.27459,1.56785 -0.49859,-0.30815 -0.40316,-2.27292 0.13196,-2.71703 0.25629,-0.21271 0.60416,-0.30134 0.77305,-0.19696 0.16888,0.10437 0.13923,-0.25486 -0.0659,-0.79831 -0.38712,-1.02559 -0.22563,-1.2839 1.38687,-2.21835 0.68165,-0.39502 -0.0254,-1.04349 -1.18348,-1.0855 -0.69554,-0.0252 -0.89652,-0.18761 -0.89652,-0.72433 0,-0.3805 -0.33703,-1.05166 -0.74896,-1.49146 -1.31049,-1.39915 -0.85577,-1.99819 2.58896,-3.41071 1.52,-0.62327 1.52,-0.62327 1.52,-3.36492 0,-3.46835 0.48648,-4.70652 2.19081,-5.57601 4.8532,-2.47591 8.04919,-8.03816 8.04919,-14.00868 0,-16.075101 -12.66489,-25.743047 -23.27608,-17.768165 -1.6176,1.215717 -1.72338,2.647451 -0.15367,2.079915 0.22564,-0.08158 0.72964,0.05783 1.12,0.30981 1.72305,1.112217 3.70401,1.530265 3.92669,0.82866 0.39265,-1.237124 3.78469,-2.017826 5.28305,-1.215929 1.68599,0.902314 2.54316,5.83059 1.46352,8.414519 -1.69754,4.062799 -7.39102,3.567322 -8.07382,-0.702626 -0.14643,-0.915731 -0.37118,-1.324394 -0.73059,-1.328448 -0.7914,-0.0089 -5.6294,-2.071193 -6.82305,-2.908426 -0.58083,-0.407393 -0.87195,-0.51065 -0.64695,-0.229461 0.33834,0.422822 0.25942,1.001837 -0.45627,3.347498 -3.17447,10.404243 0.74436,21.032023 8.83395,23.957503 l 1.77322,0.64126 0.16,24.47874 0.16,24.47874 1.92,3.57128 c 1.056,1.96421 1.95787,3.53434 2.00415,3.48918 0.0463,-0.0452 0.2191,-1.85992 0.38404,-4.03281 z m -1.11627,-16.05332 C 279.92479,152.74853 280.48867,143.2 281.12,143.2 c 1.14326,0 1.05702,10.901 -0.0893,11.28309 -0.21472,0.0716 -0.46618,-0.0674 -0.55881,-0.30876 z m 0.72533,-8.00179 c -0.0627,-1.1069 -0.11445,-0.28454 -0.11509,1.82746 -6.3e-4,2.112 0.0506,3.01764 0.11394,2.01254 0.0633,-1.0051 0.0638,-2.7331 10e-4,-3.84 z M 281.48169,125.04 c -0.51709,-1.92951 -0.13125,-3.76 0.79255,-3.76 0.62375,0 0.90272,2.6938 0.41152,3.97383 -0.28441,0.74117 -0.98131,0.61741 -1.20407,-0.21383 z m -5.53579,-21.34796 c -7.23557,-0.17547 -7.6904,-0.24543 -7.3507,-1.13068 0.17272,-0.45012 1.36388,-0.49599 10.74392,-0.4138 11.04895,0.0968 12.29799,0.25864 10.75972,1.39398 -0.66167,0.48836 -0.35518,0.4851 -14.15294,0.1505 z m 6.8541,-0.891 c -2.068,-0.0557 -5.452,-0.0557 -7.52,0 -2.068,0.0557 -0.376,0.10134 3.76,0.10134 4.136,0 5.828,-0.0456 3.76,-0.10134 z m -7.28,-1.69505 c -2.904,-0.1196 -5.748,-0.23737 -6.32,-0.26172 -1.16022,-0.0494 -1.52106,-1.137876 -0.48,-1.447914 1.14128,-0.339886 21.80666,0.282301 22.19252,0.668164 1.42016,1.42016 -1.46222,1.61518 -15.39252,1.04147 z m 3.12,-0.8591 c -0.66,-0.069 -1.74,-0.069 -2.4,0 -0.66,0.069 -0.12,0.12553 1.2,0.12553 1.32,0 1.86,-0.0565 1.2,-0.12553 z m 5.52,73.67311 c 0,-0.088 -0.072,-0.16 -0.16,-0.16 -0.088,0 -0.16,0.072 -0.16,0.16 0,0.088 0.072,0.16 0.16,0.16 0.088,0 0.16,-0.072 0.16,-0.16 z m 0.46108,-3.07091 c 0.30034,-3.04805 0.0417,-3.14676 -0.34077,-0.13006 -0.16742,1.32054 -0.20959,2.40097 -0.0937,2.40097 0.11589,0 0.3114,-1.02191 0.43448,-2.27091 z m -1.20775,1.09758 C 283.296,171.82934 283.2,171.92534 283.2,172.16 c 0,0.23467 0.096,0.33067 0.21333,0.21334 0.11734,-0.11734 0.11734,-0.30934 0,-0.42667 z M 283.7386,168.58 c -0.10216,-0.25527 -0.17798,-0.17945 -0.19334,0.19334 -0.0139,0.33733 0.0617,0.52633 0.16807,0.42 0.10634,-0.10634 0.11771,-0.38234 0.0253,-0.61334 z m 0.31473,-2.07333 C 283.936,166.38934 283.84,166.48534 283.84,166.72 c 0,0.23467 0.096,0.33067 0.21333,0.21334 0.11734,-0.11734 0.11734,-0.30934 0,-0.42667 z M 285.01193,166 c -0.0888,-0.22 -0.1614,-0.04 -0.1614,0.4 0,0.44 0.0726,0.62 0.1614,0.4 0.0888,-0.22 0.0888,-0.58 0,-0.8 z m -0.78793,-1.904 c -0.2112,-0.2112 -0.384,-0.63868 -0.384,-0.94995 0,-0.38039 -0.16308,-0.50338 -0.49736,-0.37511 -0.46536,0.17858 0.51714,1.70906 1.09714,1.70906 0.0925,0 -0.005,-0.1728 -0.21578,-0.384 z m -1.664,-0.736 c 0,-0.088 -0.072,-0.16 -0.16,-0.16 -0.088,0 -0.16,0.072 -0.16,0.16 0,0.088 0.072,0.16 0.16,0.16 0.088,0 0.16,-0.072 0.16,-0.16 z m -0.32,-0.64 c 0,-0.088 -0.072,-0.16 -0.16,-0.16 -0.088,0 -0.16,0.072 -0.16,0.16 0,0.088 0.072,0.16 0.16,0.16 0.088,0 0.16,-0.072 0.16,-0.16 z m -0.75327,-1.76 c 0.71543,0 0.49528,-0.51925 -0.64442,-1.51993 -0.59273,-0.52042 -1.15736,-1.14734 -1.25474,-1.39314 -0.0974,-0.24581 -0.18841,0.6622 -0.20231,2.01779 -0.0253,2.46472 -0.0253,2.46472 0.82147,1.68 0.4657,-0.43159 1.0417,-0.78472 1.28,-0.78472 z m 2.99327,1.44 c 0,-0.088 -0.072,-0.16 -0.16,-0.16 -0.088,0 -0.16,0.072 -0.16,0.16 0,0.088 0.072,0.16 0.16,0.16 0.088,0 0.16,-0.072 0.16,-0.16 z m 0.64,-0.32 c 0,-0.088 -0.072,-0.16 -0.16,-0.16 -0.088,0 -0.16,0.072 -0.16,0.16 0,0.088 0.072,0.16 0.16,0.16 0.088,0 0.16,-0.072 0.16,-0.16 z m -2.0115,-0.84233 c 1.10404,-0.68234 1.10404,-0.68234 -0.40592,-2.21536 -1.11368,-1.13067 -1.45221,-1.68646 -1.28991,-2.11766 0.18611,-0.49445 0.11216,-0.4779 -0.47932,0.10725 -0.69937,0.6919 -0.69937,0.6919 0.62364,1.95046 1.49548,1.42261 1.64614,2.064 0.60301,2.56708 -0.396,0.19099 -0.593,0.35699 -0.43777,0.3689 0.15523,0.0119 0.77905,-0.28539 1.38627,-0.66067 z M 285.12,161.44 c 0,-0.088 -0.072,-0.16 -0.16,-0.16 -0.088,0 -0.16,0.072 -0.16,0.16 0,0.088 0.072,0.16 0.16,0.16 0.088,0 0.16,-0.072 0.16,-0.16 z m 0.3111,-1.04 c -0.0121,-0.32631 -1.9111,-2.81791 -1.9111,-2.50748 0,0.1356 0.288,0.61267 0.64,1.06016 0.352,0.4475 0.64,1.01021 0.64,1.25048 0,0.24026 0.144,0.43684 0.32,0.43684 0.176,0 0.31599,-0.108 0.3111,-0.24 z m -1.5911,-1.18111 c 0,-0.0776 -0.16625,-0.24386 -0.36944,-0.36945 -0.2289,-0.14146 -0.28258,-0.0878 -0.14112,0.14112 0.22798,0.36888 0.51056,0.49525 0.51056,0.22833 z m -0.4496,-2.46545 c 0.60537,-0.6818 0.60472,-0.68401 -0.0926,-0.31828 -0.77783,0.40796 -1.25678,1.00484 -0.8063,1.00484 0.15911,0 0.56361,-0.30895 0.89888,-0.68656 z M 284.32,157.12 c 0.10877,-0.176 0.12577,-0.32 0.0378,-0.32 -0.088,0 -0.249,0.144 -0.35777,0.32 -0.10877,0.176 -0.12577,0.32 -0.0378,0.32 0.088,0 0.249,-0.144 0.35777,-0.32 z m -1.6,-1.28 c 0.10877,-0.176 0.12577,-0.32 0.0378,-0.32 -0.088,0 -0.249,0.144 -0.35777,0.32 -0.10877,0.176 -0.12577,0.32 -0.0378,0.32 0.088,0 0.249,-0.144 0.35777,-0.32 z m 3.2,0 c 0.10877,-0.176 0.12577,-0.32 0.0378,-0.32 -0.088,0 -0.249,0.144 -0.35777,0.32 -0.10877,0.176 -0.12577,0.32 -0.0378,0.32 0.088,0 0.249,-0.144 0.35777,-0.32 z m -1.12,-0.16 c 0,-0.088 -0.072,-0.16 -0.16,-0.16 -0.088,0 -0.16,0.072 -0.16,0.16 0,0.088 0.072,0.16 0.16,0.16 0.088,0 0.16,-0.072 0.16,-0.16 z m -0.63593,-1.4324 c -0.41935,-0.78356 -0.42218,-8.66788 -0.004,-9.76907 0.24235,-0.63743 0.2096,-0.95408 -0.13422,-1.2979 -0.93183,-0.93184 -1.29763,-2.75858 -0.64758,-3.23392 0.69167,-0.50576 0.3605,-0.56657 -0.5198,-0.0954 -0.78876,0.42213 -0.78003,0.97851 0.0406,2.587 0.60765,1.1911 0.65169,1.75387 0.56,7.15621 -0.0937,5.51808 -0.0663,5.84563 0.46455,5.56105 0.43783,-0.23472 0.49154,-0.43791 0.24,-0.90792 z m 2.34988,-5.7676 0.16441,-4.32 -0.29864,4.16 c -0.16425,2.288 -0.42581,4.69307 -0.58125,5.3446 -0.15543,0.65153 -0.19167,1.27597 -0.0805,1.38765 0.33695,0.33857 0.62284,-2.02187 0.79602,-6.57225 z m -0.99493,-1.2 c 0.10522,-2.05545 0.0406,-2.64 -0.29194,-2.64 -0.33863,0 -0.4187,0.97749 -0.3866,4.72 0.0428,4.99537 0.36725,4.00092 0.67854,-2.08 z m -0.6033,-5.04 c -0.10131,-0.264 -0.30827,-0.48 -0.45991,-0.48 -0.15165,0 -0.19284,0.216 -0.0915,0.48 0.10131,0.264 0.30827,0.48 0.45991,0.48 0.15165,0 0.19284,-0.216 0.0915,-0.48 z m 1.16428,0.32 c 0,-0.088 -0.072,-0.16 -0.16,-0.16 -0.088,0 -0.16,0.072 -0.16,0.16 0,0.088 0.072,0.16 0.16,0.16 0.088,0 0.16,-0.072 0.16,-0.16 z m -1.6,-1.6 c 0,-0.088 -0.072,-0.16 -0.16,-0.16 -0.088,0 -0.16,0.072 -0.16,0.16 0,0.088 0.072,0.16 0.16,0.16 0.088,0 0.16,-0.072 0.16,-0.16 z m 1.0821,-0.33662 c 0.10928,-0.28477 0.0556,-0.41322 -0.12577,-0.30111 -0.17398,0.10753 -0.31633,0.331 -0.31633,0.49662 0,0.4603 0.22937,0.35887 0.4421,-0.19551 z M 286.4,140 c 0,-0.088 -0.072,-0.16 -0.16,-0.16 -0.088,0 -0.16,0.072 -0.16,0.16 0,0.088 0.072,0.16 0.16,0.16 0.088,0 0.16,-0.072 0.16,-0.16 z m -1.10116,-0.94982 c 0.34164,-0.2584 0.98116,-0.48577 1.42116,-0.50526 0.48653,-0.0216 0.61192,-0.10327 0.32,-0.20854 -1.54932,-0.55869 -3.66646,-3.37483 -2.8,-3.72445 0.22571,-0.0911 0.13972,-0.17241 -0.19732,-0.18667 -0.42903,-0.0181 -0.55158,-0.20019 -0.43496,-0.64614 0.14092,-0.53887 0.0825,-0.57097 -0.44268,-0.24302 -0.85741,0.53546 -0.77035,0.89964 0.67496,2.82316 1.42443,1.89574 1.53775,2.33881 0.72,2.81511 -0.308,0.17939 -0.40752,0.33055 -0.22116,0.3359 0.18636,0.005 0.61836,-0.20169 0.96,-0.46009 z m 2.63936,-0.33865 c -0.0985,-0.0985 -0.27746,0.0791 -0.39763,0.39467 -0.17366,0.45606 -0.1369,0.49282 0.17914,0.17914 0.21869,-0.21707 0.31701,-0.47528 0.21849,-0.57381 z M 288.32,138.08 c 0,-0.088 -0.072,-0.16 -0.16,-0.16 -0.088,0 -0.16,0.072 -0.16,0.16 0,0.088 0.072,0.16 0.16,0.16 0.088,0 0.16,-0.072 0.16,-0.16 z m -6.82667,-1.01333 C 281.376,136.94934 281.28,137.04534 281.28,137.28 c 0,0.23467 0.096,0.33067 0.21333,0.21334 0.11734,-0.11734 0.11734,-0.30934 0,-0.42667 z m 5.54667,0.42911 c 0,-0.0573 -0.396,-0.45332 -0.88,-0.88 -0.88,-0.77578 -0.88,-0.77578 -0.10422,0.10422 0.72508,0.82249 0.98422,1.02675 0.98422,0.77578 z m 0,-1.2966 c 0,-0.0665 -0.252,-0.31845 -0.56,-0.56 -0.50754,-0.39803 -0.51886,-0.38672 -0.12082,0.12082 0.41804,0.53304 0.68082,0.70255 0.68082,0.43918 z m -1.38389,-1.68974 c -0.11581,-0.1158 -0.0318,-0.4398 0.18667,-0.72 0.35089,-0.45002 0.33232,-0.45856 -0.15926,-0.0732 -0.50061,0.39246 -0.5075,1.00374 -0.0113,1.00374 0.10695,0 0.0997,-0.0948 -0.0161,-0.21056 z M 285.44,133.28 c 0,-0.088 -0.072,-0.16 -0.16,-0.16 -0.088,0 -0.16,0.072 -0.16,0.16 0,0.088 0.072,0.16 0.16,0.16 0.088,0 0.16,-0.072 0.16,-0.16 z m -0.26824,-1.7753 c -1.98085,-1.20463 -3.19478,-3.49549 -1.63631,-3.08794 0.32077,0.0839 0.64959,-0.0204 0.7307,-0.23183 0.10157,-0.26469 -0.15622,-0.33977 -0.82802,-0.24117 -0.85435,0.12539 -0.95428,0.062 -0.80457,-0.51049 0.15582,-0.59585 0.0893,-0.62521 -0.7519,-0.33195 -1.27414,0.44417 -1.42042,0.82715 -0.63519,1.66299 0.37044,0.39432 0.67353,0.88766 0.67353,1.09632 0,0.20865 0.18,0.38455 0.4,0.39088 0.85642,0.0246 2.25608,1.50651 2.07543,2.19733 -0.17157,0.65608 -0.15394,0.65921 0.7398,0.13126 0.91556,-0.54083 0.91556,-0.54083 0.0365,-1.0754 z M 286.4,132.64 c 0,-0.088 -0.072,-0.16 -0.16,-0.16 -0.088,0 -0.16,0.072 -0.16,0.16 0,0.088 0.072,0.16 0.16,0.16 0.088,0 0.16,-0.072 0.16,-0.16 z m 0.64,-0.32 c 0,-0.088 -0.072,-0.16 -0.16,-0.16 -0.088,0 -0.16,0.072 -0.16,0.16 0,0.088 0.072,0.16 0.16,0.16 0.088,0 0.16,-0.072 0.16,-0.16 z m -0.96,-1.28 c 0,-0.088 -0.072,-0.16 -0.16,-0.16 -0.088,0 -0.16,0.072 -0.16,0.16 0,0.088 0.072,0.16 0.16,0.16 0.088,0 0.16,-0.072 0.16,-0.16 z m -1.28,-0.92082 c 0,-0.0665 -0.252,-0.31845 -0.56,-0.56 -0.50754,-0.39803 -0.51886,-0.38672 -0.12082,0.12082 0.41804,0.53304 0.68082,0.70255 0.68082,0.43918 z m 0.96,-0.32 c 0,-0.0665 -0.252,-0.31845 -0.56,-0.56 -0.50754,-0.39803 -0.51886,-0.38672 -0.12082,0.12082 0.41804,0.53304 0.68082,0.70255 0.68082,0.43918 z M 285.12,127.52 c 0,-0.088 -0.072,-0.16 -0.16,-0.16 -0.088,0 -0.16,0.072 -0.16,0.16 0,0.088 0.072,0.16 0.16,0.16 0.088,0 0.16,-0.072 0.16,-0.16 z m -0.96,-0.32 c 0,-0.088 -0.072,-0.16 -0.16,-0.16 -0.088,0 -0.16,0.072 -0.16,0.16 0,0.088 0.072,0.16 0.16,0.16 0.088,0 0.16,-0.072 0.16,-0.16 z m 1.92,0 c 0,-0.088 -0.072,-0.16 -0.16,-0.16 -0.088,0 -0.16,0.072 -0.16,0.16 0,0.088 0.072,0.16 0.16,0.16 0.088,0 0.16,-0.072 0.16,-0.16 z m -2.34667,-0.69333 c -0.11733,-0.11734 -0.30933,-0.11734 -0.42666,0 -0.11734,0.11733 -0.0213,0.21333 0.21333,0.21333 0.23467,0 0.33067,-0.096 0.21333,-0.21333 z m 2.98667,0.0722 c 0,-0.0776 -0.16625,-0.24387 -0.36944,-0.36945 -0.2289,-0.14146 -0.28258,-0.0878 -0.14112,0.14112 0.22798,0.36888 0.51056,0.49525 0.51056,0.22833 z m -1.34705,-0.45068 c 0.31866,-0.20217 0.34595,-0.73078 0.1195,-2.3151 l -0.29346,-2.05311 -0.0395,1.9841 c -0.0303,1.52398 -0.16937,2.05974 -0.5995,2.31027 -0.43837,0.25533 -0.45575,0.32722 -0.08,0.331 0.264,0.003 0.66583,-0.11306 0.89295,-0.25716 z M 289.6,117.49258 c 0.792,-0.26359 1.26,-0.53925 1.04,-0.61258 -0.54987,-0.18329 -0.50187,-0.87709 0.0949,-1.3724 0.27221,-0.22591 0.80619,-0.85555 1.18662,-1.39918 0.48805,-0.69742 0.12676,-0.47026 -1.22715,0.77158 -1.05536,0.968 -2.59734,2.11975 -3.42662,2.55945 -1.72348,0.91381 -1.94753,1.3525 -0.54779,1.07255 0.96,-0.192 0.96,-0.192 1.02577,3.928 l 0.0658,4.12 0.17423,-4.29409 C 288.16,117.97182 288.16,117.97182 289.6,117.49258 Z m -2.56,5.06742 c 0,-1.92 -0.128,-3.2 -0.32,-3.2 -0.35591,0 -0.45655,5.83679 -0.10667,6.18667 0.39983,0.39982 0.42667,0.21191 0.42667,-2.98667 z m -1.28,-3.36 c 0,-0.088 -0.072,-0.16 -0.16,-0.16 -0.088,0 -0.16,0.072 -0.16,0.16 0,0.088 0.072,0.16 0.16,0.16 0.088,0 0.16,-0.072 0.16,-0.16 z m 5.92,-2.72 c 0.10877,-0.176 0.12577,-0.32 0.0378,-0.32 -0.088,0 -0.249,0.144 -0.35777,0.32 -0.10877,0.176 -0.12577,0.32 -0.0378,0.32 0.088,0 0.249,-0.144 0.35777,-0.32 z m 1.16082,-0.88 c 0.39804,-0.50754 0.38672,-0.51885 -0.12082,-0.12082 -0.308,0.24155 -0.56,0.49355 -0.56,0.56 0,0.26337 0.26278,0.0939 0.68082,-0.43918 z m 3.46897,-5.96168 c 3.12615,-6.45197 1.51102,-18.0513 -3.18446,-22.869784 -2.46427,-2.528823 -4.23957,-3.644536 -2.07836,-1.306171 6.46308,6.992831 7.791,19.708795 2.84699,27.262165 l -1.09668,1.67547 1.28183,-1.40168 c 0.705,-0.77093 1.70881,-2.28293 2.23068,-3.36 z m -0.90897,3.40168 c 0.39804,-0.50754 0.38672,-0.51885 -0.12082,-0.12082 -0.308,0.24155 -0.56,0.49355 -0.56,0.56 0,0.26337 0.26278,0.0939 0.68082,-0.43918 z m -1.95128,-1.05782 c 0.48627,-0.9086 0.15459,-0.76033 -0.48593,0.21722 -0.3025,0.46167 -0.39183,0.74165 -0.19852,0.62218 0.19331,-0.11947 0.50131,-0.4972 0.68445,-0.8394 z M 296.32,111.84 c 0,-0.088 -0.072,-0.16 -0.16,-0.16 -0.088,0 -0.16,0.072 -0.16,0.16 0,0.088 0.072,0.16 0.16,0.16 0.088,0 0.16,-0.072 0.16,-0.16 z m 0.32,-0.64 c 0,-0.088 -0.072,-0.16 -0.16,-0.16 -0.088,0 -0.16,0.072 -0.16,0.16 0,0.088 0.072,0.16 0.16,0.16 0.088,0 0.16,-0.072 0.16,-0.16 z m -1.94268,-1.92 c 0,-0.176 -0.20579,0.04 -0.45732,0.48 -0.25153,0.44 -0.45732,0.944 -0.45732,1.12 0,0.176 0.20579,-0.04 0.45732,-0.48 0.25153,-0.44 0.45732,-0.944 0.45732,-1.12 z m 2.58268,0.96 c 0,-0.088 -0.072,-0.16 -0.16,-0.16 -0.088,0 -0.16,0.072 -0.16,0.16 0,0.088 0.072,0.16 0.16,0.16 0.088,0 0.16,-0.072 0.16,-0.16 z m 0.32,-0.64 c 0,-0.088 -0.072,-0.16 -0.16,-0.16 -0.088,0 -0.16,0.072 -0.16,0.16 0,0.088 0.072,0.16 0.16,0.16 0.088,0 0.16,-0.072 0.16,-0.16 z m -2.66667,-1.33333 C 294.816,108.14933 294.72,108.24533 294.72,108.48 c 0,0.23467 0.096,0.33067 0.21333,0.21333 0.11734,-0.11733 0.11734,-0.30933 0,-0.42666 z M 297.92,108.64 c 0,-0.088 -0.072,-0.16 -0.16,-0.16 -0.088,0 -0.16,0.072 -0.16,0.16 0,0.088 0.072,0.16 0.16,0.16 0.088,0 0.16,-0.072 0.16,-0.16 z m -1.89104,-6.56 c 0.0119,-7.974385 -3.76108,-16.024994 -8.76979,-18.712768 -1.15029,-0.617274 -1.58016,-1.426897 -0.77917,-1.467515 1.81379,-0.09197 -2.00508,-0.684712 -5.04,-0.782272 -3.23812,-0.104091 -3.4889,-0.08112 -1.6,0.146561 10.42306,1.256347 17.90103,13.654325 15.45056,25.615994 -0.17196,0.83936 -0.10876,0.75918 0.25222,-0.32 0.29216,-0.87345 0.48344,-2.63605 0.48618,-4.48 z m 2.21104,5.6 c 0,-0.088 -0.072,-0.16 -0.16,-0.16 -0.088,0 -0.16,0.072 -0.16,0.16 0,0.088 0.072,0.16 0.16,0.16 0.088,0 0.16,-0.072 0.16,-0.16 z m 0.2186,-1.5 c -0.10216,-0.25527 -0.17798,-0.17945 -0.19334,0.19333 -0.0139,0.33734 0.0617,0.52634 0.16807,0.42 0.10634,-0.10633 0.11771,-0.38233 0.0253,-0.61333 z m 0.59093,-6.864235 c -0.3307,-5.450601 -2.05292,-10.221705 -4.74323,-13.140351 -1.44675,-1.569537 -5.0213,-4.255413 -5.6634,-4.255413 -0.21771,0 0.45847,0.57048 1.50261,1.267733 6.04447,4.036341 9.22644,11.431951 8.61028,20.012266 -0.1539,2.1432 -0.14719,2.17086 0.15516,0.64 0.1738,-0.88 0.23617,-2.91591 0.13858,-4.524235 z m -34.50895,-1.955764 c -0.0805,-0.308 -0.14634,-0.056 -0.14634,0.56 0,0.616 0.0659,0.868 0.14634,0.56 0.0805,-0.308 0.0805,-0.812 0,-1.12 z m 14.97942,-0.08 c -0.10877,-0.176 -0.46216,-0.32 -0.7853,-0.32 -0.56689,0 -1.42549,-0.742431 -2.40545,-2.08 -0.39855,-0.543979 -0.47042,-0.559665 -0.47907,-0.104552 -0.0145,0.762393 1.48065,2.437544 2.32074,2.600149 1.28003,0.247759 1.54948,0.228665 1.34908,-0.0956 z m 1.40899,-0.442629 c 0.27989,-0.337251 0.26745,-0.480963 -0.0523,-0.603644 -0.25474,-0.09775 -0.4196,0.07615 -0.4196,0.44263 0,0.721541 0.005,0.723309 0.47185,0.161014 z m -16.07706,-1.237371 c -0.0888,-0.22 -0.1614,-0.04 -0.1614,0.4 0,0.44 0.0726,0.62 0.1614,0.4 0.0888,-0.22 0.0888,-0.58 0,-0.8 z m 14.82807,0.88 c 0,-0.088 -0.072,-0.16 -0.16,-0.16 -0.088,0 -0.16,0.072 -0.16,0.16 0,0.088 0.072,0.16 0.16,0.16 0.088,0 0.16,-0.072 0.16,-0.16 z m -1.52749,-1.411065 c -0.0834,-0.56833 -0.37134,-0.992436 -0.73903,-1.08859 -0.62058,-0.162285 -0.43904,0.524437 0.42816,1.619655 0.44257,0.558939 0.46518,0.520326 0.31087,-0.531065 z M 280,95.840001 c 0,-0.088 -0.072,-0.16 -0.16,-0.16 -0.088,0 -0.16,0.072 -0.16,0.16 0,0.088 0.072,0.16 0.16,0.16 0.088,0 0.16,-0.072 0.16,-0.16 z m 2.24,-0.32 c 0,-0.088 -0.072,-0.16 -0.16,-0.16 -0.088,0 -0.16,0.072 -0.16,0.16 0,0.088 0.072,0.16 0.16,0.16 0.088,0 0.16,-0.072 0.16,-0.16 z m -0.83424,-0.666172 c 0.2937,-0.765369 0.28154,-0.774602 -1.00576,-0.763182 -1.2,0.01065 -1.2,0.01065 -0.44455,0.64 0.91428,0.761672 1.19612,0.78561 1.45031,0.123182 z M 265.17333,94.506668 C 265.056,94.389335 264.96,94.485335 264.96,94.720001 c 0,0.234667 0.096,0.330667 0.21333,0.213334 0.11734,-0.117334 0.11734,-0.309334 0,-0.426667 z M 279.04,94.880001 c 0,-0.088 -0.072,-0.16 -0.16,-0.16 -0.088,0 -0.16,0.072 -0.16,0.16 0,0.088 0.072,0.16 0.16,0.16 0.088,0 0.16,-0.072 0.16,-0.16 z m 3.52,0 c 0,-0.088 -0.072,-0.16 -0.16,-0.16 -0.088,0 -0.16,0.072 -0.16,0.16 0,0.088 0.072,0.16 0.16,0.16 0.088,0 0.16,-0.072 0.16,-0.16 z m -0.3056,-5.571772 c -0.81852,-1.604432 -1.431,-1.937305 -3.0544,-1.660009 -1.43521,0.245152 -0.56331,0.781604 1.12,0.689101 0.86228,-0.04738 1.78318,1.027399 1.40483,1.639579 -0.42601,0.689312 -5.23096,0.03675 -8.60483,-1.16862 -0.51918,-0.185488 -0.54939,-0.162 -0.16,0.124425 0.89695,0.659773 3.86726,1.362529 6.65805,1.575249 5.03466,0.383754 4.43949,2.454112 -0.63437,2.206729 -9.27895,-0.452408 -17.64846,-6.58876 -19.67594,-14.426003 -0.38887,-1.503166 -0.41543,-1.535706 -0.30088,-0.368679 0.74119,7.551628 9.6797,14.43787 19.70127,15.177893 2.5975,0.191807 3.71829,0.398011 3.84,0.706486 0.0945,0.239592 0.21482,-0.384491 0.26732,-1.38685 0.0706,-1.348288 -0.0754,-2.157287 -0.56105,-3.109301 z m -16.76107,3.918439 C 265.376,93.109334 265.28,93.205334 265.28,93.440001 c 0,0.234667 0.096,0.330667 0.21333,0.213334 0.11734,-0.117334 0.11734,-0.309334 0,-0.426667 z m 10.56,0.32 c -0.11733,-0.117334 -0.30933,-0.117334 -0.42666,0 -0.11734,0.117333 -0.0213,0.213333 0.21333,0.213333 0.23467,0 0.33067,-0.096 0.21333,-0.213333 z M 233.92,92.480001 c 0.38508,-0.248858 0.39193,-0.311169 0.0347,-0.3151 -1.26921,-0.01396 -7.31317,-4.395622 -16.17897,-11.729192 -1.75138,-1.448691 -3.32114,-2.549423 -3.48836,-2.446072 -0.33649,0.207959 -0.47316,0.08465 6.88111,6.208214 4.74554,3.951396 11.1438,8.543949 11.95156,8.578616 0.176,0.0076 0.536,-0.125856 0.8,-0.296466 z m 31.89333,-0.213333 C 265.696,92.149334 265.6,92.245334 265.6,92.480001 c 0,0.234667 0.096,0.330667 0.21333,0.213333 0.11734,-0.117333 0.11734,-0.309333 0,-0.426666 z m 15.92729,-0.395305 c 0.0981,-0.158751 -0.72139,-0.379665 -1.82112,-0.49092 -1.09972,-0.111255 -2.68787,-0.283481 -3.5292,-0.382724 -0.95727,-0.112918 -3.09208,-0.950635 -5.70475,-2.238586 -6.24,-3.076097 -7.42753,-4.454056 -9.7548,-11.319132 -0.98887,-2.916987 -1.55157,-2.488336 -0.77612,0.591233 1.93123,7.669622 10.67587,13.809309 20.06648,14.088845 0.73762,0.02196 1.42139,-0.08997 1.51951,-0.248716 z M 235.2,91.680001 c 0,-0.088 -0.072,-0.16 -0.16,-0.16 -0.088,0 -0.16,0.072 -0.16,0.16 0,0.088 0.072,0.16 0.16,0.16 0.088,0 0.16,-0.072 0.16,-0.16 z m 30.93333,-0.373333 C 266.016,91.189334 265.92,91.285334 265.92,91.520001 c 0,0.234667 0.096,0.330667 0.21333,0.213333 0.11734,-0.117333 0.11734,-0.309333 0,-0.426666 z M 236.16,91.040001 c 0,-0.088 -0.072,-0.16 -0.16,-0.16 -0.088,0 -0.16,0.072 -0.16,0.16 0,0.088 0.072,0.16 0.16,0.16 0.088,0 0.16,-0.072 0.16,-0.16 z m 0.96,-0.64 c 0,-0.088 -0.072,-0.16 -0.16,-0.16 -0.088,0 -0.16,0.072 -0.16,0.16 0,0.088 0.072,0.16 0.16,0.16 0.088,0 0.16,-0.072 0.16,-0.16 z m 0.96,-0.64 c 0,-0.088 -0.072,-0.16 -0.16,-0.16 -0.088,0 -0.16,0.072 -0.16,0.16 0,0.088 0.072,0.16 0.16,0.16 0.088,0 0.16,-0.072 0.16,-0.16 z m 42.74652,-0.437085 c -0.15931,-0.257781 -1.78652,-0.11716 -1.78652,0.15439 0,0.06748 0.4405,0.122695 0.97889,0.122695 0.53838,0 0.90182,-0.124688 0.80763,-0.277085 z M 239.04,89.120001 c 0,-0.088 -0.072,-0.16 -0.16,-0.16 -0.088,0 -0.16,0.072 -0.16,0.16 0,0.088 0.072,0.16 0.16,0.16 0.088,0 0.16,-0.072 0.16,-0.16 z m 39.25333,-0.05333 c -0.11733,-0.117334 -0.30933,-0.117334 -0.42666,0 -0.11734,0.117333 -0.0213,0.213333 0.21333,0.213333 0.23467,0 0.33067,-0.096 0.21333,-0.213333 z M 240.16,88.320001 c 0.10877,-0.176 0.12577,-0.32 0.0378,-0.32 -0.088,0 -0.249,0.144 -0.35777,0.32 -0.10877,0.176 -0.12577,0.32 -0.0378,0.32 0.088,0 0.249,-0.144 0.35777,-0.32 z m 32.16,0.178886 c 0,-0.07761 -0.16625,-0.243863 -0.36944,-0.369443 -0.2289,-0.141466 -0.28258,-0.08778 -0.14112,0.141114 0.22798,0.368881 0.51056,0.495253 0.51056,0.228329 z m 5.44,-0.338886 c 0,-0.088 -0.072,-0.16 -0.16,-0.16 -0.088,0 -0.16,0.072 -0.16,0.16 0,0.088 0.072,0.16 0.16,0.16 0.088,0 0.16,-0.072 0.16,-0.16 z m -36.64,-0.48 c 0.10877,-0.176 0.12577,-0.32 0.0378,-0.32 -0.088,0 -0.249,0.144 -0.35777,0.32 -0.10877,0.176 -0.12577,0.32 -0.0378,0.32 0.088,0 0.249,-0.144 0.35777,-0.32 z m 28.32,-0.461114 c 0,-0.07761 -0.16625,-0.243863 -0.36944,-0.369443 -0.2289,-0.141466 -0.28258,-0.08778 -0.14112,0.141114 0.22798,0.368881 0.51056,0.495253 0.51056,0.228329 z M 242.4,86.720001 c 0.10877,-0.176 0.12577,-0.32 0.0378,-0.32 -0.088,0 -0.249,0.144 -0.35777,0.32 -0.10877,0.176 -0.12577,0.32 -0.0378,0.32 0.088,0 0.249,-0.144 0.35777,-0.32 z m 24.19582,-1.826356 c -1.1243,-1.002914 -2.31176,-2.262267 -2.63881,-2.798562 -0.32704,-0.536295 -0.59516,-0.806276 -0.59581,-0.599959 -0.002,0.634985 2.02298,3.069738 3.47291,4.175641 2.1392,1.631623 2.01767,1.235272 -0.23829,-0.77712 z m -23.035,0.946356 c 0.39804,-0.507538 0.38672,-0.518856 -0.12082,-0.120818 -0.308,0.241551 -0.56,0.493551 -0.56,0.56 0,0.263371 0.26278,0.09386 0.68082,-0.439182 z m 25.65991,-0.369386 c -0.11742,-0.448982 0.29057,-0.967118 1.54995,-1.968437 3.60999,-2.870245 6.78937,-3.68018 12.41788,-3.163406 5.36889,0.492937 6.33358,0.773273 8.64543,2.512328 2.3597,1.775055 2.21024,1.863268 4.28853,-2.531099 2.5833,-5.462171 1.01474,-14.509979 -3.29332,-18.996649 -9.03059,-9.404995 -23.39215,-8.252334 -28.94959,2.323498 -1.5258,2.9036 -1.52313,2.913151 0.81519,2.913151 4.87522,0 4.14447,4.663345 -1.11575,7.120261 -1.80322,0.842238 -1.80361,0.852476 -0.19565,5.09809 0.89144,2.353719 1.28237,2.930053 3.37912,4.981649 2.5902,2.534418 2.6922,2.605396 2.45821,1.710614 z m 28.8631,-4.361872 c 4.48514,-8.999826 0.24813,-21.104385 -8.96383,-25.608461 -0.528,-0.25816 -0.69285,-0.287333 -0.36633,-0.06483 7.37483,5.025466 10.44596,10.968378 10.04838,19.44455 -0.21694,4.625065 -2.34555,9.92 -3.98793,9.92 -0.45352,0 -0.44753,0.07269 0.0514,0.623972 0.64094,0.708233 0.8637,0.409547 3.21833,-4.31523 z M 296.64,85.600001 c 0,-0.088 -0.072,-0.16 -0.16,-0.16 -0.088,0 -0.16,0.072 -0.16,0.16 0,0.088 0.072,0.16 0.16,0.16 0.088,0 0.16,-0.072 0.16,-0.16 z m -51.47918,-1.04 c 0.39804,-0.507538 0.38672,-0.518856 -0.12082,-0.120818 -0.53304,0.418039 -0.70255,0.680818 -0.43918,0.680818 0.0665,0 0.31845,-0.252 0.56,-0.56 z m 25.23918,0.4 c 0,-0.088 -0.072,-0.16 -0.16,-0.16 -0.088,0 -0.16,0.072 -0.16,0.16 0,0.088 0.072,0.16 0.16,0.16 0.088,0 0.16,-0.072 0.16,-0.16 z m 27.04,-0.48 c 0.10877,-0.176 0.12577,-0.32 0.0378,-0.32 -0.088,0 -0.249,0.144 -0.35777,0.32 -0.10877,0.176 -0.12577,0.32 -0.0378,0.32 0.088,0 0.249,-0.144 0.35777,-0.32 z m -25.6,-0.64 c 0.10877,-0.176 0.12577,-0.32 0.0378,-0.32 -0.088,0 -0.249,0.144 -0.35777,0.32 -0.10877,0.176 -0.12577,0.32 -0.0378,0.32 0.088,0 0.249,-0.144 0.35777,-0.32 z m 23.52,-0.16 c 0,-0.088 -0.072,-0.16 -0.16,-0.16 -0.088,0 -0.16,0.072 -0.16,0.16 0,0.088 0.072,0.16 0.16,0.16 0.088,0 0.16,-0.072 0.16,-0.16 z m 2.56,0 c 0,-0.088 -0.072,-0.16 -0.16,-0.16 -0.088,0 -0.16,0.072 -0.16,0.16 0,0.088 0.072,0.16 0.16,0.16 0.088,0 0.16,-0.072 0.16,-0.16 z m -50.56,-0.96 c 0.41336,-0.44 0.67956,-0.8 0.59156,-0.8 -0.088,0 -0.4982,0.36 -0.91156,0.8 -0.41336,0.44 -0.67956,0.8 -0.59156,0.8 0.088,0 0.4982,-0.36 0.91156,-0.8 z m 41.6,0.658885 c 0,-0.07761 -0.16625,-0.243862 -0.36944,-0.369442 -0.2289,-0.141466 -0.28258,-0.08778 -0.14112,0.141114 0.22798,0.368881 0.51056,0.495253 0.51056,0.228328 z m -16,-0.338885 c 0,-0.088 -0.072,-0.16 -0.16,-0.16 -0.088,0 -0.16,0.072 -0.16,0.16 0,0.088 0.072,0.16 0.16,0.16 0.088,0 0.16,-0.072 0.16,-0.16 z m 0.64,-0.32 c 0,-0.088 -0.072,-0.16 -0.16,-0.16 -0.088,0 -0.16,0.072 -0.16,0.16 0,0.088 0.072,0.16 0.16,0.16 0.088,0 0.16,-0.072 0.16,-0.16 z m 14.4,0 c 0,-0.088 -0.072,-0.16 -0.16,-0.16 -0.088,0 -0.16,0.072 -0.16,0.16 0,0.088 0.072,0.16 0.16,0.16 0.088,0 0.16,-0.072 0.16,-0.16 z m 8,0 c 0,-0.088 -0.072,-0.16 -0.16,-0.16 -0.088,0 -0.16,0.072 -0.16,0.16 0,0.088 0.072,0.16 0.16,0.16 0.088,0 0.16,-0.072 0.16,-0.16 z m 2.56,0 c 0,-0.088 -0.072,-0.16 -0.16,-0.16 -0.088,0 -0.16,0.072 -0.16,0.16 0,0.088 0.072,0.16 0.16,0.16 0.088,0 0.16,-0.072 0.16,-0.16 z m -23.68,-0.64 c 0,-0.088 -0.072,-0.16 -0.16,-0.16 -0.088,0 -0.16,0.072 -0.16,0.16 0,0.088 0.072,0.16 0.16,0.16 0.088,0 0.16,-0.072 0.16,-0.16 z m 24,0 c 0,-0.088 -0.072,-0.16 -0.16,-0.16 -0.088,0 -0.16,0.072 -0.16,0.16 0,0.088 0.072,0.16 0.16,0.16 0.088,0 0.16,-0.072 0.16,-0.16 z m -22.24,-0.48 c 0.4034,-0.173349 0.46255,-0.275017 0.16,-0.275017 -0.264,0 -0.768,0.123757 -1.12,0.275017 -0.4034,0.173349 -0.46255,0.275017 -0.16,0.275017 0.264,0 0.768,-0.123757 1.12,-0.275017 z m 11.27333,0.126667 C 287.807,81.620334 287.531,81.608966 287.3,81.701405 c -0.25527,0.102152 -0.17945,0.177978 0.19333,0.193333 0.33734,0.01389 0.52634,-0.06174 0.42,-0.16807 z M 296.64,81.440001 c 0,-0.088 -0.072,-0.16 -0.16,-0.16 -0.088,0 -0.16,0.072 -0.16,0.16 0,0.088 0.072,0.16 0.16,0.16 0.088,0 0.16,-0.072 0.16,-0.16 z m 2.56,0 c 0,-0.088 -0.072,-0.16 -0.16,-0.16 -0.088,0 -0.16,0.072 -0.16,0.16 0,0.088 0.072,0.16 0.16,0.16 0.088,0 0.16,-0.072 0.16,-0.16 z m -35.84,-0.64 c 0,-0.088 -0.072,-0.16 -0.16,-0.16 -0.088,0 -0.16,0.072 -0.16,0.16 0,0.088 0.072,0.16 0.16,0.16 0.088,0 0.16,-0.072 0.16,-0.16 z m 33.6,0 c 0,-0.088 -0.072,-0.16 -0.16,-0.16 -0.088,0 -0.16,0.072 -0.16,0.16 0,0.088 0.072,0.16 0.16,0.16 0.088,0 0.16,-0.072 0.16,-0.16 z m 2.56,0 c 0,-0.088 -0.072,-0.16 -0.16,-0.16 -0.088,0 -0.16,0.072 -0.16,0.16 0,0.088 0.072,0.16 0.16,0.16 0.088,0 0.16,-0.072 0.16,-0.16 z m -41.77612,-6.945569 c 0.56463,0.257263 0.83089,0.645135 0.86407,1.258709 0.0479,0.88686 0.0479,0.88686 0.18308,-0.01204 0.15195,-1.010773 0.87542,-1.436735 1.65136,-0.972282 0.37693,0.225619 0.67326,0.14892 1.09032,-0.282205 0.55534,-0.574082 0.52518,-0.585724 -0.99513,-0.384048 -2.06212,0.27355 -2.93423,-0.186155 -2.94776,-1.553825 -0.01,-0.973833 -0.0352,-0.995587 -0.48,-0.40758 -0.2584,0.341639 -0.46982,0.90375 -0.46982,1.249136 0,0.366404 -1.49692,2.173659 -3.59378,4.338838 L 249.45243,80.8 253.1901,77.141292 c 3.55481,-3.479713 3.77759,-3.640517 4.55378,-3.28686 z m 5.29612,6.305569 c 0,-0.088 -0.072,-0.16 -0.16,-0.16 -0.088,0 -0.16,0.072 -0.16,0.16 0,0.088 0.072,0.16 0.16,0.16 0.088,0 0.16,-0.072 0.16,-0.16 z m 34.24,0 c 0,-0.088 -0.072,-0.16 -0.16,-0.16 -0.088,0 -0.16,0.072 -0.16,0.16 0,0.088 0.072,0.16 0.16,0.16 0.088,0 0.16,-0.072 0.16,-0.16 z m 2.56,0 c 0,-0.088 -0.072,-0.16 -0.16,-0.16 -0.088,0 -0.16,0.072 -0.16,0.16 0,0.088 0.072,0.16 0.16,0.16 0.088,0 0.16,-0.072 0.16,-0.16 z m -37.12,-0.96 c 0,-0.088 -0.072,-0.16 -0.16,-0.16 -0.088,0 -0.16,0.072 -0.16,0.16 0,0.088 0.072,0.16 0.16,0.16 0.088,0 0.16,-0.072 0.16,-0.16 z m 34.88,0 c 0,-0.088 -0.072,-0.16 -0.16,-0.16 -0.088,0 -0.16,0.072 -0.16,0.16 0,0.088 0.072,0.16 0.16,0.16 0.088,0 0.16,-0.072 0.16,-0.16 z m 2.56,0 c 0,-0.088 -0.072,-0.16 -0.16,-0.16 -0.088,0 -0.16,0.072 -0.16,0.16 0,0.088 0.072,0.16 0.16,0.16 0.088,0 0.16,-0.072 0.16,-0.16 z M 262.29333,78.186668 C 262.176,78.069334 262.08,78.165334 262.08,78.400001 c 0,0.234667 0.096,0.330667 0.21333,0.213333 0.11734,-0.117333 0.11734,-0.309333 0,-0.426666 z m 35.52,-0.32 C 297.696,77.749334 297.6,77.845334 297.6,78.080001 c 0,0.234667 0.096,0.330667 0.21333,0.213333 0.11734,-0.117333 0.11734,-0.309333 0,-0.426666 z m 2.56,0 C 300.256,77.749334 300.16,77.845334 300.16,78.080001 c 0,0.234667 0.096,0.330667 0.21333,0.213333 0.11734,-0.117333 0.11734,-0.309333 0,-0.426666 z M 262.08,77.600001 c 0,-0.088 -0.072,-0.16 -0.16,-0.16 -0.088,0 -0.16,0.072 -0.16,0.16 0,0.088 0.072,0.16 0.16,0.16 0.088,0 0.16,-0.072 0.16,-0.16 z m 38.6186,-0.86 c -0.10216,-0.255275 -0.17798,-0.179448 -0.19334,0.193333 -0.0139,0.337334 0.0617,0.526334 0.16807,0.42 0.10634,-0.106333 0.11771,-0.382333 0.0253,-0.613333 z m -38.9386,-0.1 c 0,-0.088 -0.072,-0.16 -0.16,-0.16 -0.088,0 -0.16,0.072 -0.16,0.16 0,0.088 0.072,0.16 0.16,0.16 0.088,0 0.16,-0.072 0.16,-0.16 z m 36.37193,-1.52 c -0.0888,-0.22 -0.1614,-0.04 -0.1614,0.4 0,0.44 0.0726,0.62 0.1614,0.4 0.0888,-0.22 0.0888,-0.58 0,-0.8 z m -36.7986,0.186667 C 261.216,75.189334 261.12,75.285334 261.12,75.520001 c 0,0.234667 0.096,0.330667 0.21333,0.213333 0.11734,-0.117333 0.11734,-0.309333 0,-0.426666 z M 300.62983,68.2282 C 298.63033,59.240062 290.24281,52.25452 281.12,51.979455 l -3.2,-0.09648 3.14782,0.282879 c 10.89296,0.978895 19.06275,9.470528 19.69816,20.474151 0.19402,3.36 0.19402,3.36 0.2883,0.64 0.0582,-1.678103 -0.10442,-3.613197 -0.42445,-5.051801 z m -37.6965,4.838468 c -0.11733,-0.117334 -0.30933,-0.117334 -0.42666,0 -0.11734,0.117333 -0.0213,0.213333 0.21333,0.213333 0.23467,0 0.33067,-0.096 0.21333,-0.213333 z M 263.68,72.800001 c 0,-0.088 -0.072,-0.16 -0.16,-0.16 -0.088,0 -0.16,0.072 -0.16,0.16 0,0.088 0.072,0.16 0.16,0.16 0.088,0 0.16,-0.072 0.16,-0.16 z m -1.5547,-0.531379 c 2.46596,-0.738819 4.68444,-3.378723 3.28927,-3.9141 -2.14335,-0.822482 -7.67997,2.186858 -7.04893,3.831331 0.21414,0.558027 2.03928,0.598208 3.75966,0.08277 z m 2.3547,0.05138 c 0.10877,-0.176 0.12577,-0.32 0.0378,-0.32 -0.088,0 -0.249,0.144 -0.35777,0.32 -0.10877,0.176 -0.12577,0.32 -0.0378,0.32 0.088,0 0.249,-0.144 0.35777,-0.32 z m 33.6586,-0.7 c -0.10216,-0.255275 -0.17798,-0.179449 -0.19334,0.193333 -0.0139,0.337334 0.0617,0.526334 0.16807,0.42 0.10634,-0.106333 0.11771,-0.382333 0.0253,-0.613333 z m -32.17778,-0.5 c 0.39804,-0.507538 0.38672,-0.518856 -0.12082,-0.120818 -0.53304,0.418039 -0.70255,0.680818 -0.43918,0.680818 0.0664,0 0.31845,-0.252 0.56,-0.56 z m -6.26937,-2.845649 c -0.24205,-0.26703 -0.40072,-0.182499 -0.5883,0.31342 -0.14126,0.373488 -0.50126,0.966157 -0.8,1.317043 -0.29873,0.350886 -0.034,0.209847 0.5883,-0.31342 0.80769,-0.679156 1.03661,-1.056023 0.8,-1.317043 z m 7.18855,1.645649 c 0,-0.088 -0.072,-0.16 -0.16,-0.16 -0.088,0 -0.16,0.072 -0.16,0.16 0,0.088 0.072,0.16 0.16,0.16 0.088,0 0.16,-0.072 0.16,-0.16 z m 31.04,0 c 0,-0.088 -0.072,-0.16 -0.16,-0.16 -0.088,0 -0.16,0.072 -0.16,0.16 0,0.088 0.072,0.16 0.16,0.16 0.088,0 0.16,-0.072 0.16,-0.16 z M 267.04789,68.18486 c -0.24396,-0.76866 -1.22379,-1.087625 -2.76361,-0.899648 -0.88351,0.107856 -0.80156,0.141848 0.44258,0.183577 1.29383,0.0434 1.58259,0.173514 1.89198,0.852564 0.42552,0.933901 0.7373,0.834713 0.42905,-0.136493 z M 297.6,68.640001 c 0,-0.088 -0.072,-0.16 -0.16,-0.16 -0.088,0 -0.16,0.072 -0.16,0.16 0,0.088 0.072,0.16 0.16,0.16 0.088,0 0.16,-0.072 0.16,-0.16 z m -36.8,-0.32 c 0,-0.088 -0.072,-0.16 -0.16,-0.16 -0.088,0 -0.16,0.072 -0.16,0.16 0,0.088 0.072,0.16 0.16,0.16 0.088,0 0.16,-0.072 0.16,-0.16 z m 1.37641,-0.760641 c -0.13693,-0.109648 -0.33866,-0.319532 -0.44829,-0.46641 -0.10963,-0.146878 -0.27305,0.01487 -0.36316,0.359433 -0.12895,0.493126 -0.0335,0.59241 0.4483,0.46641 0.33667,-0.08804 0.50009,-0.249786 0.36315,-0.359433 z M 297.28,67.360001 c 0,-0.088 -0.072,-0.16 -0.16,-0.16 -0.088,0 -0.16,0.072 -0.16,0.16 0,0.088 0.072,0.16 0.16,0.16 0.088,0 0.16,-0.072 0.16,-0.16 z M 259.73333,66.666667 C 259.616,66.549334 259.52,66.645334 259.52,66.880001 c 0,0.234667 0.096,0.330667 0.21333,0.213333 0.11734,-0.117333 0.11734,-0.309333 0,-0.426667 z M 260.8,67.040001 c 0,-0.088 -0.072,-0.16 -0.16,-0.16 -0.088,0 -0.16,0.072 -0.16,0.16 0,0.088 0.072,0.16 0.16,0.16 0.088,0 0.16,-0.072 0.16,-0.16 z m 0.94009,-2.24 c 5.3e-4,-0.763078 -0.39428,-0.192119 -0.77448,1.12 -0.22513,0.776971 -0.21733,0.781577 0.27112,0.16 0.2766,-0.352 0.50312,-0.928 0.50336,-1.28 z m 35.21991,1.6 c 0,-0.088 -0.072,-0.16 -0.16,-0.16 -0.088,0 -0.16,0.072 -0.16,0.16 0,0.088 0.072,0.16 0.16,0.16 0.088,0 0.16,-0.072 0.16,-0.16 z m -36.8,-0.64 c 0,-0.088 -0.072,-0.16 -0.16,-0.16 -0.088,0 -0.16,0.072 -0.16,0.16 0,0.088 0.072,0.16 0.16,0.16 0.088,0 0.16,-0.072 0.16,-0.16 z m 2.24,-0.32 c 0,-0.088 -0.072,-0.16 -0.16,-0.16 -0.088,0 -0.16,0.072 -0.16,0.16 0,0.088 0.072,0.16 0.16,0.16 0.088,0 0.16,-0.072 0.16,-0.16 z m 34.24,0 c 0,-0.088 -0.072,-0.16 -0.16,-0.16 -0.088,0 -0.16,0.072 -0.16,0.16 0,0.088 0.072,0.16 0.16,0.16 0.088,0 0.16,-0.072 0.16,-0.16 z m -36.16,-0.32 c 0,-0.088 -0.072,-0.16 -0.16,-0.16 -0.088,0 -0.16,0.072 -0.16,0.16 0,0.088 0.072,0.16 0.16,0.16 0.088,0 0.16,-0.072 0.16,-0.16 z m 2.24,-0.64 c 0,-0.088 -0.072,-0.16 -0.16,-0.16 -0.088,0 -0.16,0.072 -0.16,0.16 0,0.088 0.072,0.16 0.16,0.16 0.088,0 0.16,-0.072 0.16,-0.16 z m 33.6,0 c 0,-0.088 -0.072,-0.16 -0.16,-0.16 -0.088,0 -0.16,0.072 -0.16,0.16 0,0.088 0.072,0.16 0.16,0.16 0.088,0 0.16,-0.072 0.16,-0.16 z m -34.24,-0.64 c 0,-0.088 -0.072,-0.16 -0.16,-0.16 -0.088,0 -0.16,0.072 -0.16,0.16 0,0.088 0.072,0.16 0.16,0.16 0.088,0 0.16,-0.072 0.16,-0.16 z m 33.92,0 c 0,-0.088 -0.072,-0.16 -0.16,-0.16 -0.088,0 -0.16,0.072 -0.16,0.16 0,0.088 0.072,0.16 0.16,0.16 0.088,0 0.16,-0.072 0.16,-0.16 z m -34.88,-0.32 c 0,-0.088 -0.072,-0.16 -0.16,-0.16 -0.088,0 -0.16,0.072 -0.16,0.16 0,0.088 0.072,0.16 0.16,0.16 0.088,0 0.16,-0.072 0.16,-0.16 z m 34.56,-0.32 c 0,-0.088 -0.072,-0.16 -0.16,-0.16 -0.088,0 -0.16,0.072 -0.16,0.16 0,0.088 0.072,0.16 0.16,0.16 0.088,0 0.16,-0.072 0.16,-0.16 z m -34.24,-0.32 c 0,-0.088 -0.072,-0.16 -0.16,-0.16 -0.088,0 -0.16,0.072 -0.16,0.16 0,0.088 0.072,0.16 0.16,0.16 0.088,0 0.16,-0.072 0.16,-0.16 z m 0.96,0 c 0,-0.088 -0.072,-0.16 -0.16,-0.16 -0.088,0 -0.16,0.072 -0.16,0.16 0,0.088 0.072,0.16 0.16,0.16 0.088,0 0.16,-0.072 0.16,-0.16 z m 32.96,-0.32 c 0,-0.088 -0.072,-0.16 -0.16,-0.16 -0.088,0 -0.16,0.072 -0.16,0.16 0,0.088 0.072,0.16 0.16,0.16 0.088,0 0.16,-0.072 0.16,-0.16 z m -33.6,-0.32 c 0,-0.088 -0.072,-0.16 -0.16,-0.16 -0.088,0 -0.16,0.072 -0.16,0.16 0,0.088 0.072,0.16 0.16,0.16 0.088,0 0.16,-0.072 0.16,-0.16 z m 1.28,-0.32 c 0,-0.088 -0.072,-0.16 -0.16,-0.16 -0.088,0 -0.16,0.072 -0.16,0.16 0,0.088 0.072,0.16 0.16,0.16 0.088,0 0.16,-0.072 0.16,-0.16 z m 0.96,0 c 0,-0.088 -0.072,-0.16 -0.16,-0.16 -0.088,0 -0.16,0.072 -0.16,0.16 0,0.088 0.072,0.16 0.16,0.16 0.088,0 0.16,-0.072 0.16,-0.16 z m -0.64,-0.64 c 0,-0.088 -0.072,-0.16 -0.16,-0.16 -0.088,0 -0.16,0.072 -0.16,0.16 0,0.088 0.072,0.16 0.16,0.16 0.088,0 0.16,-0.072 0.16,-0.16 z m 29.76,-1.28 c -0.77729,-0.792 -1.48525,-1.44 -1.57325,-1.44 -0.088,0 0.47596,0.648 1.25325,1.44 0.77729,0.792 1.48525,1.44 1.57325,1.44 0.088,0 -0.47596,-0.648 -1.25325,-1.44 z m -28.48,0.96 c 0,-0.088 -0.072,-0.16 -0.16,-0.16 -0.088,0 -0.16,0.072 -0.16,0.16 0,0.088 0.072,0.16 0.16,0.16 0.088,0 0.16,-0.072 0.16,-0.16 z m -1.92,-0.32 c 0,-0.088 -0.072,-0.16 -0.16,-0.16 -0.088,0 -0.16,0.072 -0.16,0.16 0,0.088 0.072,0.16 0.16,0.16 0.088,0 0.16,-0.072 0.16,-0.16 z m 1.44,-0.48 c 0.10877,-0.176 0.12577,-0.32 0.0378,-0.32 -0.088,0 -0.249,0.144 -0.35777,0.32 -0.10877,0.176 -0.12577,0.32 -0.0378,0.32 0.088,0 0.249,-0.144 0.35777,-0.32 z m -0.8,-0.48 c 0,-0.088 -0.072,-0.16 -0.16,-0.16 -0.088,0 -0.16,0.072 -0.16,0.16 0,0.088 0.072,0.16 0.16,0.16 0.088,0 0.16,-0.072 0.16,-0.16 z m 5.44647,-3.523347 c 0.52444,-0.271199 0.95353,-0.570604 0.95353,-0.665346 0,-0.379208 -2.62836,1.337587 -4.06817,2.657251 -1.53183,1.404006 -1.53183,1.404006 0.31464,-0.04741 1.01556,-0.798276 2.27556,-1.673301 2.8,-1.944499 z M 290.88,58.119183 c 0,-0.06645 -0.252,-0.31845 -0.56,-0.56 -0.50754,-0.398039 -0.51886,-0.38672 -0.12082,0.120818 0.41804,0.533039 0.68082,0.702553 0.68082,0.439182 z m -25.76,-0.519182 c 0.10877,-0.176 0.12577,-0.32 0.0378,-0.32 -0.088,0 -0.249,0.144 -0.35777,0.32 -0.10877,0.176 -0.12577,0.32 -0.0378,0.32 0.088,0 0.249,-0.144 0.35777,-0.32 z m 2.72,0.16 c 0,-0.088 -0.072,-0.16 -0.16,-0.16 -0.088,0 -0.16,0.072 -0.16,0.16 0,0.088 0.072,0.16 0.16,0.16 0.088,0 0.16,-0.072 0.16,-0.16 z m 0.96,-0.64 c 0,-0.088 -0.072,-0.16 -0.16,-0.16 -0.088,0 -0.16,0.072 -0.16,0.16 0,0.088 0.072,0.16 0.16,0.16 0.088,0 0.16,-0.072 0.16,-0.16 z m 20.8,0.01888 c 0,-0.07761 -0.16625,-0.243862 -0.36944,-0.369443 -0.2289,-0.141465 -0.28258,-0.08778 -0.14112,0.141115 0.22798,0.368881 0.51056,0.495253 0.51056,0.228328 z m -20.16,-0.338885 c 0,-0.088 -0.072,-0.16 -0.16,-0.16 -0.088,0 -0.16,0.072 -0.16,0.16 0,0.088 0.072,0.16 0.16,0.16 0.088,0 0.16,-0.072 0.16,-0.16 z m 19.2,-0.301115 c 0,-0.07761 -0.16625,-0.243862 -0.36944,-0.369443 -0.2289,-0.141465 -0.28258,-0.08778 -0.14112,0.141115 0.22798,0.368881 0.51056,0.495253 0.51056,0.228328 z m -21.76,-0.338885 c 0,-0.088 -0.072,-0.16 -0.16,-0.16 -0.088,0 -0.16,0.072 -0.16,0.16 0,0.088 0.072,0.16 0.16,0.16 0.088,0 0.16,-0.072 0.16,-0.16 z m 3.84,0 c 0,-0.088 -0.072,-0.16 -0.16,-0.16 -0.088,0 -0.16,0.072 -0.16,0.16 0,0.088 0.072,0.16 0.16,0.16 0.088,0 0.16,-0.072 0.16,-0.16 z m 0.64,-0.32 c 0,-0.088 -0.072,-0.16 -0.16,-0.16 -0.088,0 -0.16,0.072 -0.16,0.16 0,0.088 0.072,0.16 0.16,0.16 0.088,0 0.16,-0.072 0.16,-0.16 z m 16.32,0 c 0,-0.088 -0.072,-0.16 -0.16,-0.16 -0.088,0 -0.16,0.072 -0.16,0.16 0,0.088 0.072,0.16 0.16,0.16 0.088,0 0.16,-0.072 0.16,-0.16 z m -19.84,-0.32 c 0,-0.088 -0.072,-0.16 -0.16,-0.16 -0.088,0 -0.16,0.072 -0.16,0.16 0,0.088 0.072,0.16 0.16,0.16 0.088,0 0.16,-0.072 0.16,-0.16 z m 4.48,0 c 0,-0.088 -0.072,-0.16 -0.16,-0.16 -0.088,0 -0.16,0.072 -0.16,0.16 0,0.088 0.072,0.16 0.16,0.16 0.088,0 0.16,-0.072 0.16,-0.16 z m 14.72,0 c 0,-0.088 -0.072,-0.16 -0.16,-0.16 -0.088,0 -0.16,0.072 -0.16,0.16 0,0.088 0.072,0.16 0.16,0.16 0.088,0 0.16,-0.072 0.16,-0.16 z m -18.56,-0.32 c 0,-0.088 -0.072,-0.16 -0.16,-0.16 -0.088,0 -0.16,0.072 -0.16,0.16 0,0.088 0.072,0.16 0.16,0.16 0.088,0 0.16,-0.072 0.16,-0.16 z m 1.92,0 c 0,-0.088 -0.072,-0.16 -0.16,-0.16 -0.088,0 -0.16,0.072 -0.16,0.16 0,0.088 0.072,0.16 0.16,0.16 0.088,0 0.16,-0.072 0.16,-0.16 z m 2.88,0 c 0,-0.088 -0.072,-0.16 -0.16,-0.16 -0.088,0 -0.16,0.072 -0.16,0.16 0,0.088 0.072,0.16 0.16,0.16 0.088,0 0.16,-0.072 0.16,-0.16 z m 13.12,0 c 0,-0.088 -0.072,-0.16 -0.16,-0.16 -0.088,0 -0.16,0.072 -0.16,0.16 0,0.088 0.072,0.16 0.16,0.16 0.088,0 0.16,-0.072 0.16,-0.16 z m -17.28,-0.32 c 0,-0.088 -0.072,-0.16 -0.16,-0.16 -0.088,0 -0.16,0.072 -0.16,0.16 0,0.088 0.072,0.16 0.16,0.16 0.088,0 0.16,-0.072 0.16,-0.16 z m 2.13333,-0.05333 c -0.11733,-0.117333 -0.30933,-0.117333 -0.42666,0 C 270.70933,54.944 270.80537,55.04 271.04,55.04 c 0.23467,0 0.33067,-0.096 0.21333,-0.213334 z m 3.30667,0.05333 c 0,-0.088 -0.072,-0.16 -0.16,-0.16 -0.088,0 -0.16,0.072 -0.16,0.16 0,0.088 0.072,0.16 0.16,0.16 0.088,0 0.16,-0.072 0.16,-0.16 z m 10.88,0 c 0,-0.088 -0.072,-0.16 -0.16,-0.16 -0.088,0 -0.16,0.072 -0.16,0.16 0,0.088 0.072,0.16 0.16,0.16 0.088,0 0.16,-0.072 0.16,-0.16 z m 2.56,0 c 0,-0.088 -0.072,-0.16 -0.16,-0.16 -0.088,0 -0.16,0.072 -0.16,0.16 0,0.088 0.072,0.16 0.16,0.16 0.088,0 0.16,-0.072 0.16,-0.16 z m -13.6,-0.827754 c 0.88,-0.204176 3.328,-0.474642 5.44,-0.601037 l 3.84,-0.229809 -3.52,-0.04597 c -3.41404,-0.04459 -6.93016,0.494633 -8.11734,1.244846 -0.4453,0.281395 -0.42793,0.306076 0.11734,0.16674 0.352,-0.08995 1.36,-0.330595 2.24,-0.53477 z m 1.97333,0.45442 c -0.11733,-0.117333 -0.30933,-0.117333 -0.42666,0 -0.11734,0.117334 -0.0213,0.213334 0.21333,0.213334 0.23467,0 0.33067,-0.096 0.21333,-0.213334 z m 8.42667,0.05333 c 0,-0.088 -0.072,-0.16 -0.16,-0.16 -0.088,0 -0.16,0.072 -0.16,0.16 0,0.088 0.072,0.16 0.16,0.16 0.088,0 0.16,-0.072 0.16,-0.16 z m 1.92,-0.32 c -0.44,-0.251527 -0.944,-0.457322 -1.12,-0.457322 -0.176,0 0.04,0.205795 0.48,0.457322 0.44,0.251526 0.944,0.457321 1.12,0.457321 0.176,0 -0.04,-0.205795 -0.48,-0.457321 z m -16.32,0 c 0,-0.088 -0.072,-0.16 -0.16,-0.16 -0.088,0 -0.16,0.072 -0.16,0.16 0,0.088 0.072,0.16 0.16,0.16 0.088,0 0.16,-0.072 0.16,-0.16 z m 11.75286,-0.07354 c -0.66392,-0.06927 -1.67192,-0.06811 -2.24,0.0026 -0.56807,0.07069 -0.0249,0.127369 1.20714,0.12595 1.232,-0.0014 1.69679,-0.05926 1.03286,-0.128531 z M 271.04,53.920001 c 0,-0.088 -0.072,-0.16 -0.16,-0.16 -0.088,0 -0.16,0.072 -0.16,0.16 0,0.088 0.072,0.16 0.16,0.16 0.088,0 0.16,-0.072 0.16,-0.16 z m 0.64,-0.32 c 0,-0.088 -0.072,-0.16 -0.16,-0.16 -0.088,0 -0.16,0.072 -0.16,0.16 0,0.088 0.072,0.16 0.16,0.16 0.088,0 0.16,-0.072 0.16,-0.16 z m 13.33333,-0.05333 c -0.11733,-0.117333 -0.30933,-0.117333 -0.42666,0 -0.11734,0.117334 -0.0213,0.213334 0.21333,0.213334 0.23467,0 0.33067,-0.096 0.21333,-0.213334 z M 272.64,53.280001 c 0,-0.088 -0.072,-0.16 -0.16,-0.16 -0.088,0 -0.16,0.072 -0.16,0.16 0,0.088 0.072,0.16 0.16,0.16 0.088,0 0.16,-0.072 0.16,-0.16 z m 0.96,-0.32 c 0,-0.088 -0.072,-0.16 -0.16,-0.16 -0.088,0 -0.16,0.072 -0.16,0.16 0,0.088 0.072,0.16 0.16,0.16 0.088,0 0.16,-0.072 0.16,-0.16 z m 1.17333,-0.373334 c -0.11733,-0.117333 -0.30933,-0.117333 -0.42666,0 -0.11734,0.117334 -0.0213,0.213334 0.21333,0.213334 0.23467,0 0.33067,-0.096 0.21333,-0.213334 z m 2.26,-0.3 C 276.927,52.180334 276.651,52.168966 276.42,52.261404 c -0.25527,0.102153 -0.17945,0.177979 0.19333,0.193333 0.33734,0.01389 0.52634,-0.06174 0.42,-0.16807 z M 208.85682,131.44 c -5.79699,-6.17496 -5.25606,-4.22755 -4.09371,-14.73792 3.666,-33.149264 3.67947,-33.881136 0.67689,-36.766999 -2.86464,-2.753287 -2.8716,-2.597196 0.33491,-7.509088 1.67435,-2.564845 2.0336,-4.09899 1.02509,-4.377529 -0.308,-0.08507 -1.24529,-0.247786 -2.08286,-0.3616 -23.1892,-3.151085 -29.49096,-33.821954 -9.67714,-47.099018 1.408,-0.943488 3.77554,-2.722416 5.26121,-3.953173 5.26597,-4.362441 15.20313,-7.9797935 15.6363,-5.691968 0.0825,0.435985 -0.64059,0.774116 -3.67738,1.7195 -4.03097,1.254883 -6.51526,2.383902 -9.26961,4.212684 -2.13522,1.417711 -2.12975,1.474875 0.0689,0.718441 0.97866,-0.336709 2.62789,-0.766063 3.66496,-0.954119 1.03707,-0.188057 2.95354,-0.828606 4.25883,-1.423442 5.08963,-2.31942 12.69682,-3.91308 12.69682,-2.659907 0,0.327117 -1.03771,0.801644 -3.28,1.499889 -6.92926,2.157759 -7.8907,2.530892 -6.59371,2.558986 5.36313,0.116171 14.01789,5.581929 17.93801,11.32842 11.22093,16.448742 0.26698,38.614207 -19.8243,40.114735 -3.44523,0.257309 -3.45234,0.435061 -0.19126,4.784455 2.08531,2.781223 2.09826,3.084361 0.29435,6.889133 -1.6617,3.504808 -1.14448,10.802155 1.61802,22.82852 1.20644,5.25215 3.9514,19.39399 3.9554,20.37791 0.002,0.47185 -0.86662,3.27985 -1.93009,6.24 -1.06347,2.96015 -1.99495,5.56209 -2.06996,5.78209 -0.30749,0.9019 -1.23528,0.21285 -4.73964,-3.52 z m 7.27637,-6.19609 c 0.8276,-2.30169 -0.35293,-10.06974 -3.61754,-23.80391 -0.66702,-2.806124 -2.06141,-12.324356 -2.45396,-16.750833 -0.22266,-2.510834 -0.22266,-2.510834 1.29709,-5.679539 l 1.51976,-3.168706 -1.25821,-1.68046 C 208.7215,70.288785 208.64,70.143714 208.64,68.855588 c 0,-1.512916 0.25982,-1.655587 3.01498,-1.655587 4.0104,0 11.11408,-2.605297 13.94502,-5.114383 1.10703,-0.981168 1.10147,-0.979972 -0.48,0.103303 -18.79542,12.874462 -44.67391,-2.723187 -40.17462,-24.214298 0.21479,-1.025958 0.32001,-1.935894 0.23383,-2.022081 -0.84658,-0.84658 -1.45636,9.930887 -0.74935,13.244224 1.85022,8.670876 11.40339,16.640244 21.40057,17.852608 1.97286,0.239251 2.52001,0.614383 2.33588,1.601519 -0.0645,0.346009 -0.12836,0.922981 -0.14183,1.28216 -0.0135,0.359179 -0.88687,2.015179 -1.9409,3.68 -2.35957,3.72691 -2.36549,3.506836 0.15642,5.817704 2.94233,2.696111 2.87617,5.10544 -1.16322,42.358033 -0.45643,4.2093 -0.80438,3.48244 4.23558,8.84783 l 3.57306,3.80376 1.21469,-3.46019 c 0.66808,-1.9031 1.58297,-4.48443 2.03308,-5.73628 z m -0.8397,-59.830827 c 23.26063,-4.780527 25.26877,-35.532135 2.94811,-45.145755 -4.2238,-1.819211 -14.48251,-2.484435 -13.87439,-0.899681 0.23608,0.615203 -0.36147,0.844388 -2.96189,1.136014 -9.60238,1.076863 -16.80912,12.216113 -16.0295,24.77634 0.58217,9.379275 8.20391,17.428489 18.78418,19.837712 1.32,0.300576 2.544,0.592685 2.72,0.649131 0.95949,0.307726 6.28428,0.08383 8.41349,-0.353761 z M 199.44,58.694891 c -2.41029,-1.23951 -1.46849,-1.73489 3.2983,-1.73489 9.57969,0 19.35556,-6.061915 20.77118,-12.88 0.32344,-1.5578 1.45119,-1.183836 1.44752,0.48 -0.0168,7.588281 -18.42187,17.783613 -25.517,14.13489 z m 10.05851,-1.136231 c 1.14584,-0.353913 2.0267,-0.700113 1.95748,-0.769333 -0.0692,-0.06922 -0.83913,0.099 -1.71092,0.373815 -0.87179,0.274819 -3.38507,0.585148 -5.58507,0.689621 -2.73821,0.130031 -3.69717,0.265541 -3.04,0.42958 1.51299,0.377664 6.09375,-0.01799 8.37851,-0.723683 z M 212.16,56.480001 c 0,-0.088 -0.072,-0.16 -0.16,-0.16 -0.088,0 -0.16,0.072 -0.16,0.16 0,0.088 0.072,0.16 0.16,0.16 0.088,0 0.16,-0.072 0.16,-0.16 z m 1.45884,-0.657653 c 0.5857,-0.469241 0.57549,-0.475901 -0.17884,-0.116655 -0.97953,0.4665 -1.16107,0.614308 -0.75449,0.614308 0.17169,0 0.59169,-0.223944 0.93333,-0.497653 z M 214.72,55.200001 c 0,-0.088 -0.072,-0.16 -0.16,-0.16 -0.088,0 -0.16,0.072 -0.16,0.16 0,0.088 0.072,0.16 0.16,0.16 0.088,0 0.16,-0.072 0.16,-0.16 z m 1.6,-0.982518 c 0,-0.088 -0.288,-0.0059 -0.64,0.182518 -0.352,0.188384 -0.64,0.414517 -0.64,0.502517 0,0.088 0.288,0.0059 0.64,-0.182517 0.352,-0.188385 0.64,-0.414518 0.64,-0.502518 z m 1.12,-0.777482 c 0.10877,-0.176 0.12577,-0.32 0.0378,-0.32 -0.088,0 -0.249,0.144 -0.35777,0.32 -0.10877,0.176 -0.12577,0.32 -0.0378,0.32 0.088,0 0.249,-0.144 0.35777,-0.32 z m 2.88,-2.56 c 1.04498,-1.056 1.82797,-1.92 1.73997,-1.92 -0.088,0 -1.01499,0.864 -2.05997,1.92 -1.04498,1.056 -1.82797,1.92 -1.73997,1.92 0.088,0 1.01499,-0.864 2.05997,-1.92 z m 2.56,-2.88 c 0.10877,-0.176 0.12577,-0.32 0.0378,-0.32 -0.088,0 -0.249,0.144 -0.35777,0.32 -0.10877,0.176 -0.12577,0.32 -0.0378,0.32 0.088,0 0.249,-0.144 0.35777,-0.32 z m 0.48,-0.8 c 0,-0.088 -0.072,-0.16 -0.16,-0.16 -0.088,0 -0.16,0.072 -0.16,0.16 0,0.088 0.072,0.16 0.16,0.16 0.088,0 0.16,-0.072 0.16,-0.16 z m 0.32,-0.64 c 0,-0.088 -0.072,-0.16 -0.16,-0.16 -0.088,0 -0.16,0.072 -0.16,0.16 0,0.088 0.072,0.16 0.16,0.16 0.088,0 0.16,-0.072 0.16,-0.16 z m 0.64,-1.28 c 0,-0.088 -0.072,-0.16 -0.16,-0.16 -0.088,0 -0.16,0.072 -0.16,0.16 0,0.088 0.072,0.16 0.16,0.16 0.088,0 0.16,-0.072 0.16,-0.16 z M 199.46092,43.197767 C 198.42318,42.779651 198.08,41.877008 198.08,39.56559 c 0,-3.976236 2.83557,-5.560149 4.4,-2.457785 1.72556,3.4219 -0.16683,7.23916 -3.01908,6.089962 z m 1.82612,-0.961532 c 1.3521,-0.723622 1.37773,-3.805583 0.0453,-5.451023 -1.19282,-1.47307 -2.92613,1.157322 -2.49862,3.791782 0.29629,1.825808 1.11165,2.377263 2.45329,1.659241 z m 10.2189,-1.996234 c -1.52719,-1.619422 -0.35509,-6.937463 1.59255,-7.225715 2.57976,-0.381805 3.44768,6.190407 0.98564,7.463578 -1.26709,0.655241 -1.78063,0.607862 -2.57819,-0.237863 z m 2.60993,-0.915867 c 0.87436,-0.874364 0.75294,-4.035705 -0.19524,-5.083436 -1.45857,-1.611704 -3.13674,3.357037 -1.86411,5.519302 0.27507,0.467373 1.39264,0.230836 2.05935,-0.435866 z m -19.98254,-4.977467 c -1.68319,-1.683195 4.78579,-5.85017 7.13239,-4.594307 1.35197,0.723552 0.72862,1.727441 -1.24854,2.010738 -1.72675,0.247417 -4.0045,1.337682 -4.80187,2.298459 -0.448,0.539806 -0.74818,0.618906 -1.08198,0.28511 z m 3.37639,-2.809691 c 0.65435,-0.273337 1.69835,-0.496976 2.32,-0.496976 0.62165,0 1.13028,-0.144 1.13028,-0.32 0,-1.087091 -4.37734,0.522552 -5.75884,2.11765 -0.79883,0.92235 -0.79883,0.92235 0.16,0.05933 0.52736,-0.474664 1.49421,-1.086664 2.14856,-1.36 z M 216.16,27.174522 c -1.64836,-0.995456 -2.03175,-1.026475 -5.2,-0.420724 -1.36308,0.260613 -1.4053,-0.469522 -0.0911,-1.575348 2.42035,-2.036586 8.56386,-0.576162 8.27001,1.965931 -0.13792,1.193163 -1.03799,1.20227 -2.9789,0.03014 z M 218.16179,26.8 c -0.26285,-0.79927 -2.60132,-1.830309 -4.08179,-1.799675 l -1.44,0.0298 1.41398,0.277468 c 0.77769,0.152607 1.92969,0.632174 2.56,1.065704 1.29209,0.888702 1.74038,1.01229 1.54781,0.426706 z M 211.2,26.08 c 0,-0.088 -0.072,-0.16 -0.16,-0.16 -0.088,0 -0.16,0.072 -0.16,0.16 0,0.088 0.072,0.16 0.16,0.16 0.088,0 0.16,-0.072 0.16,-0.16 z m 0.64,-0.32 c 0,-0.088 -0.072,-0.16 -0.16,-0.16 -0.088,0 -0.16,0.072 -0.16,0.16 0,0.088 0.072,0.16 0.16,0.16 0.088,0 0.16,-0.072 0.16,-0.16 z m 0.64,-0.32 c 0,-0.088 -0.072,-0.16 -0.16,-0.16 -0.088,0 -0.16,0.072 -0.16,0.16 0,0.088 0.072,0.16 0.16,0.16 0.088,0 0.16,-0.072 0.16,-0.16 z m 15.36,34.880001 c 0,-0.088 -0.072,-0.16 -0.16,-0.16 -0.088,0 -0.16,0.072 -0.16,0.16 0,0.088 0.072,0.16 0.16,0.16 0.088,0 0.16,-0.072 0.16,-0.16 z m 4.45023,-6.08 c 8.48492,-14.916187 -1.97584,-35.275409 -18.93468,-36.851567 -1.93796,-0.180115 -2.18622,-0.276585 -2.05021,-0.796682 0.18203,-0.696103 0.0848,-0.719806 -0.84638,-0.206255 -0.38443,0.212024 -1.62092,0.614497 -2.74777,0.894386 -2.04881,0.508889 -2.04881,0.508889 1.76,0.534105 20.86783,0.138157 32.57465,23.269537 20.21673,39.946013 l -0.94853,1.28 1.13832,-1.28 c 0.62607,-0.704 1.7117,-2.288 2.41252,-3.52 z M 185.49333,34.986667 C 185.376,34.869334 185.28,34.965334 185.28,35.2 c 0,0.234667 0.096,0.330667 0.21333,0.213334 0.11734,-0.117334 0.11734,-0.309334 0,-0.426667 z m 0.32,-0.96 C 185.696,33.909334 185.6,34.005334 185.6,34.24 c 0,0.234667 0.096,0.330667 0.21333,0.213334 0.11734,-0.117334 0.11734,-0.309334 0,-0.426667 z m 0.32,-0.96 C 186.016,32.949334 185.92,33.045334 185.92,33.28 c 0,0.234667 0.096,0.330667 0.21333,0.213334 0.11734,-0.117334 0.11734,-0.309334 0,-0.426667 z M 186.56,32.48 c 0,-0.088 -0.072,-0.16 -0.16,-0.16 -0.088,0 -0.16,0.072 -0.16,0.16 0,0.088 0.072,0.16 0.16,0.16 0.088,0 0.16,-0.072 0.16,-0.16 z m 0.32,-0.64 c 0,-0.088 -0.072,-0.16 -0.16,-0.16 -0.088,0 -0.16,0.072 -0.16,0.16 0,0.088 0.072,0.16 0.16,0.16 0.088,0 0.16,-0.072 0.16,-0.16 z m 0.32,-0.64 c 0,-0.088 -0.072,-0.16 -0.16,-0.16 -0.088,0 -0.16,0.072 -0.16,0.16 0,0.088 0.072,0.16 0.16,0.16 0.088,0 0.16,-0.072 0.16,-0.16 z m 0.32,-0.64 c 0,-0.088 -0.072,-0.16 -0.16,-0.16 -0.088,0 -0.16,0.072 -0.16,0.16 0,0.088 0.072,0.16 0.16,0.16 0.088,0 0.16,-0.072 0.16,-0.16 z m 0.32,-0.64 c 0,-0.088 -0.072,-0.16 -0.16,-0.16 -0.088,0 -0.16,0.072 -0.16,0.16 0,0.088 0.072,0.16 0.16,0.16 0.088,0 0.16,-0.072 0.16,-0.16 z m 0.32,-0.64 c 0,-0.088 -0.072,-0.16 -0.16,-0.16 -0.088,0 -0.16,0.072 -0.16,0.16 0,0.088 0.072,0.16 0.16,0.16 0.088,0 0.16,-0.072 0.16,-0.16 z m 0.48,-0.8 c 0.10877,-0.176 0.12577,-0.32 0.0378,-0.32 -0.088,0 -0.249,0.144 -0.35777,0.32 -0.10877,0.176 -0.12577,0.32 -0.0378,0.32 0.088,0 0.249,-0.144 0.35777,-0.32 z m 0.48,-0.8 c 0,-0.088 -0.072,-0.16 -0.16,-0.16 -0.088,0 -0.16,0.072 -0.16,0.16 0,0.088 0.072,0.16 0.16,0.16 0.088,0 0.16,-0.072 0.16,-0.16 z m 0.8,-1.12 c 0.10877,-0.176 0.12577,-0.32 0.0378,-0.32 -0.088,0 -0.249,0.144 -0.35777,0.32 -0.10877,0.176 -0.12577,0.32 -0.0378,0.32 0.088,0 0.249,-0.144 0.35777,-0.32 z m 1.76,-2.08 c 0.59705,-0.616 1.01355,-1.12 0.92555,-1.12 -0.088,0 -0.6485,0.504 -1.24555,1.12 -0.59705,0.616 -1.01355,1.12 -0.92555,1.12 0.088,0 0.6485,-0.504 1.24555,-1.12 z m 2.4,-2.08 c 0.10877,-0.176 0.12577,-0.32 0.0378,-0.32 -0.088,0 -0.249,0.144 -0.35777,0.32 -0.10877,0.176 -0.12577,0.32 -0.0378,0.32 0.088,0 0.249,-0.144 0.35777,-0.32 z m 0.8,-0.48 c 0,-0.088 -0.072,-0.16 -0.16,-0.16 -0.088,0 -0.16,0.072 -0.16,0.16 0,0.088 0.072,0.16 0.16,0.16 0.088,0 0.16,-0.072 0.16,-0.16 z m 0.96,-0.64 c 0,-0.088 -0.072,-0.16 -0.16,-0.16 -0.088,0 -0.16,0.072 -0.16,0.16 0,0.088 0.072,0.16 0.16,0.16 0.088,0 0.16,-0.072 0.16,-0.16 z m 0.64,-0.32 c 0,-0.088 -0.072,-0.16 -0.16,-0.16 -0.088,0 -0.16,0.072 -0.16,0.16 0,0.088 0.072,0.16 0.16,0.16 0.088,0 0.16,-0.072 0.16,-0.16 z m 2.56,-1.393065 c 0,-0.267127 0.324,-0.85195 0.72,-1.299605 0.59401,-0.671497 -0.16963,-0.05178 -2.76912,2.247217 -0.15902,0.140636 0.23698,0.09424 0.88,-0.103112 0.67436,-0.206969 1.16912,-0.564351 1.16912,-0.8445 z m 2.17954,0.07716 c 0.53875,-0.10775 1.05201,-0.38475 1.14058,-0.615556 0.13252,-0.345333 -0.0197,-0.346336 -0.85954,-0.0057 -0.56132,0.227693 -1.23658,0.493325 -1.50058,0.590293 -0.6723,0.246936 0.0481,0.265203 1.21954,0.03092 z M 200.96,18.4 c 0,-0.088 -0.072,-0.16 -0.16,-0.16 -0.088,0 -0.16,0.072 -0.16,0.16 0,0.088 0.072,0.16 0.16,0.16 0.088,0 0.16,-0.072 0.16,-0.16 z m 2.24,0 c 0,-0.088 -0.072,-0.16 -0.16,-0.16 -0.088,0 -0.16,0.072 -0.16,0.16 0,0.088 0.072,0.16 0.16,0.16 0.088,0 0.16,-0.072 0.16,-0.16 z m 1.49333,-0.373333 c -0.11733,-0.117333 -0.30933,-0.117333 -0.42666,0 C 204.14933,18.144 204.24533,18.24 204.48,18.24 c 0.23467,0 0.33067,-0.096 0.21333,-0.213333 z M 201.44,16.96 c 0.10877,-0.176 0.12577,-0.32 0.0378,-0.32 -0.088,0 -0.249,0.144 -0.35777,0.32 -0.10877,0.176 -0.12577,0.32 -0.0378,0.32 0.088,0 0.249,-0.144 0.35777,-0.32 z M 202.72,16 c 0.10877,-0.176 0.12577,-0.32 0.0378,-0.32 -0.088,0 -0.249,0.144 -0.35777,0.32 -0.10877,0.176 -0.12577,0.32 -0.0378,0.32 0.088,0 0.249,-0.144 0.35777,-0.32 z m 13.44,-1.469638 c 1.76,-0.587962 2.95924,-1.073823 2.66497,-1.079692 -0.6759,-0.01348 -5.72563,1.694339 -6.53731,2.210918 -0.58316,0.371145 -0.58186,0.377687 0.0323,0.162266 0.352,-0.123459 2.08,-0.70553 3.84,-1.293492 z M 203.68,15.36 c 0.10877,-0.176 0.12577,-0.32 0.0378,-0.32 -0.088,0 -0.249,0.144 -0.35777,0.32 -0.10877,0.176 -0.12577,0.32 -0.0378,0.32 0.088,0 0.249,-0.144 0.35777,-0.32 z m 0.8,-0.48 c 0,-0.088 -0.072,-0.16 -0.16,-0.16 -0.088,0 -0.16,0.072 -0.16,0.16 0,0.088 0.072,0.16 0.16,0.16 0.088,0 0.16,-0.072 0.16,-0.16 z m 3.06399,-1.682678 C 207.39923,13.052559 204.8,14.345567 204.8,14.562345 c 0,0.08213 0.64484,-0.163951 1.43298,-0.546858 0.78814,-0.382907 1.37809,-0.751081 1.31101,-0.818165 z m 12.50934,0.02935 c -0.11733,-0.117334 -0.30933,-0.117334 -0.42666,0 C 219.50933,13.344 219.60533,13.44 219.84,13.44 c 0.23467,0 0.33067,-0.096 0.21333,-0.213333 z M 208.32,12.96 c 0,-0.088 -0.072,-0.16 -0.16,-0.16 -0.088,0 -0.16,0.072 -0.16,0.16 0,0.088 0.072,0.16 0.16,0.16 0.088,0 0.16,-0.072 0.16,-0.16 z m 13.44,0 c 0,-0.088 -0.072,-0.16 -0.16,-0.16 -0.088,0 -0.16,0.072 -0.16,0.16 0,0.088 0.072,0.16 0.16,0.16 0.088,0 0.16,-0.072 0.16,-0.16 z m -12.58667,-0.373333 c -0.11733,-0.117334 -0.30933,-0.117334 -0.42666,0 C 208.62933,12.704 208.72533,12.8 208.96,12.8 c 0.23467,0 0.33067,-0.096 0.21333,-0.213333 z m 0.96,-0.32 c -0.11733,-0.117334 -0.30933,-0.117334 -0.42666,0 C 209.58933,12.384 209.68533,12.48 209.92,12.48 c 0.23467,0 0.33067,-0.096 0.21333,-0.213333 z M 212,11.84 c 0.4034,-0.173349 0.46255,-0.275017 0.16,-0.275017 -0.264,0 -0.768,0.123758 -1.12,0.275017 -0.4034,0.173349 -0.46255,0.275018 -0.16,0.275018 0.264,0 0.768,-0.123758 1.12,-0.275018 z m 1.67333,-0.513333 C 213.567,11.220333 213.291,11.208965 213.06,11.301404 c -0.25527,0.102152 -0.17945,0.177978 0.19333,0.193333 0.33734,0.01389 0.52634,-0.06174 0.42,-0.16807 z M 174.24,104.15842 c -0.176,-0.08 -4.928,-0.65711 -10.56,-1.28242 -12.29555,-1.36514 -18.7832,-2.27658 -21.43108,-3.010819 -1.92421,-0.533567 -1.98679,-0.531052 -2.85233,0.114642 -1.34519,1.003507 -9.61571,0.997027 -10.97357,-0.0086 -5.70887,-4.227997 4.45159,-8.814738 10.40026,-4.694996 0.956,0.662076 2.15285,1.469612 2.65966,1.794523 1.50141,0.962533 7.71281,2.023083 19.95706,3.40752 6.336,0.71639 12.42698,1.45786 13.53552,1.64769 1.65468,0.28335 2.113,0.26294 2.56,-0.11402 8.12513,-6.851959 12.96335,-11.21055 18.39311,-16.569731 6.57522,-6.489753 7.91137,-7.51046 7.91137,-6.043622 0,1.386158 -17.06154,17.863192 -24.1233,23.296863 -1.77189,1.36338 -4.24356,2.02363 -5.4767,1.46297 z m 0.96,-1.14758 c -0.88,-0.15064 -4.768,-0.64054 -8.64,-1.08867 -21.97497,-2.543295 -24.8387,-3.073094 -26.88,-4.972867 -1.73639,-1.616001 -3.6255,-2.372027 -6.08,-2.433232 -2.24,-0.05585 -2.24,-0.05585 -0.16,0.155817 3.51503,0.35771 6.95339,2.606557 6.09439,3.986014 -0.39313,0.631312 -0.38584,0.659655 0.0723,0.281123 0.42562,-0.351687 1.10561,-0.288994 4.13141,0.380907 1.99207,0.441035 6.06994,1.105518 9.06194,1.476638 15.94618,1.97789 27.95244,3.16472 22.4,2.21427 z m 2.29333,0.13583 c -0.11733,-0.11734 -0.30933,-0.11734 -0.42666,0 -0.11734,0.11733 -0.0213,0.21333 0.21333,0.21333 0.23467,0 0.33067,-0.096 0.21333,-0.21333 z m 1.42749,-0.98667 c 0.39804,-0.50754 0.38672,-0.51886 -0.12082,-0.12082 -0.308,0.24155 -0.56,0.49355 -0.56,0.56 0,0.26337 0.26278,0.0939 0.68082,-0.43918 z m 1.55918,-1.2 c 0.41336,-0.44 0.67956,-0.8 0.59156,-0.8 -0.088,0 -0.4982,0.36 -0.91156,0.8 -0.41336,0.44 -0.67956,0.8 -0.59156,0.8 0.088,0 0.4982,-0.36 0.91156,-0.8 z m -42.12222,-1.333189 c 0.2732,-0.152893 -1.34798,-0.26681 -3.79704,-0.26681 -5.17483,0 -7.36205,-1.144443 -6.0253,-3.152695 0.14551,-0.218607 0.0126,-0.122728 -0.29544,0.213064 -1.19708,1.305097 -0.10264,2.895586 2.34915,3.413899 1.60751,0.339831 7.0504,0.194481 7.76863,-0.207458 z M 185.44,96.609983 c 0.352,-0.4077 -0.332,0.10584 -1.52,1.141198 -1.188,1.035359 -2.16,1.942309 -2.16,2.015444 0,0.211852 2.97489,-2.339961 3.68,-3.156642 z m -46.91676,1.81274 c 1.23163,-0.761194 -2.72474,-2.74316 -5.4726,-2.741526 -2.48444,0.0015 -5.77495,2.02058 -3.6564,2.243622 0.0252,0.0027 0.62176,0.22156 1.32576,0.486466 1.32938,0.500231 6.99891,0.508541 7.80324,0.01144 z m 48.85689,-3.462722 c 0.93987,-1.04 0.93987,-1.04 -0.10013,-0.100131 -0.572,0.516928 -1.04,0.984928 -1.04,1.04 0,0.24722 0.26404,0.02956 1.14013,-0.939869 z m -57.29166,0.141801 c -0.0985,-0.09852 -0.35674,-2.03e-4 -0.5738,0.218491 -0.31369,0.316037 -0.27693,0.352794 0.17913,0.179134 0.31559,-0.12017 0.49319,-0.299101 0.39467,-0.397625 z M 130.88,94.880001 c 0,-0.088 -0.072,-0.16 -0.16,-0.16 -0.088,0 -0.16,0.072 -0.16,0.16 0,0.088 0.072,0.16 0.16,0.16 0.088,0 0.16,-0.072 0.16,-0.16 z m 59.52,-2.56 c 0.95598,-0.968 1.66614,-1.76 1.57814,-1.76 -0.088,0 -0.94216,0.792 -1.89814,1.76 -0.95598,0.968 -1.66614,1.76 -1.57814,1.76 0.088,0 0.94216,-0.792 1.89814,-1.76 z m 4.48,-4.48 c 0,-0.088 -0.072,-0.16 -0.16,-0.16 -0.088,0 -0.16,0.072 -0.16,0.16 0,0.088 0.072,0.16 0.16,0.16 0.088,0 0.16,-0.072 0.16,-0.16 z m 5.92,-5.92 c 1.22256,-1.232 2.15084,-2.24 2.06284,-2.24 -0.088,0 -1.16028,1.008 -2.38284,2.24 -1.22256,1.232 -2.15084,2.24 -2.06284,2.24 0.088,0 1.16028,-1.008 2.38284,-2.24 z m -74.40609,20.822519 c -1.76921,-0.94576 -2.91962,-2.25567 -2.80945,-3.198963 0.14532,-1.244353 1.03199,-1.16454 2.5604,0.230473 0.75633,0.69032 1.70788,1.42931 2.11456,1.6422 0.49536,0.25931 0.7066,0.61758 0.64,1.08542 -0.13005,0.91351 -1.07693,1.00454 -2.50551,0.24087 z m -0.20295,-1.76981 c -1.65367,-1.521821 -2.13209,-1.768593 -1.81209,-0.9347 0.16493,0.42982 2.81104,2.36199 3.23474,2.36199 0.0706,0 -0.56962,-0.64228 -1.42265,-1.42729 z m 104.95761,-3.991826 c -1.38434,-0.844114 -1.68255,-1.888941 -0.75377,-2.641019 0.91743,-0.742887 1.30518,-0.732595 1.50722,0.04001 0.1895,0.724672 1.46926,1.230046 3.81214,1.505405 1.14118,0.134124 1.62593,0.322745 1.52245,0.592407 -0.46391,1.208931 -4.39744,1.534052 -6.08804,0.503199 z M 233.28,96.306571 c -0.968,-0.334702 -1.796,-0.612604 -1.84,-0.617559 -0.044,-0.005 -0.08,-0.233509 -0.08,-0.507896 0,-0.274387 -0.144,-0.409889 -0.32,-0.301115 -0.96917,0.598977 1.11874,2.089772 2.88,2.056363 1.07134,-0.02032 1.04354,-0.04768 -0.64,-0.629793 z m 67.99075,-34.458728 c -0.009,-2.838724 -1.15777,-6.487842 -2.04179,-6.487842 -0.60632,0 -1.07268,-1.273544 -0.65198,-1.780455 2.3492,-2.830621 5.89084,4.925044 4.24585,9.297813 -0.9939,2.642052 -1.54118,2.279038 -1.55208,-1.029516 z M 302.4,62.240001 c 0,-0.088 -0.072,-0.16 -0.16,-0.16 -0.088,0 -0.16,0.072 -0.16,0.16 0,0.088 0.072,0.16 0.16,0.16 0.088,0 0.16,-0.072 0.16,-0.16 z m -0.35018,-4.907789 c -0.44442,-1.587334 -1.69607,-3.252211 -2.44499,-3.252211 -0.35916,0 -0.26674,0.214586 0.33102,0.768569 1.05652,0.979154 1.76531,2.679055 2.06665,4.956497 0.2375,1.794934 0.2375,1.794934 0.33934,0.36442 0.056,-0.786783 -0.0754,-2.063557 -0.29202,-2.837275 z"
       id="path1" />
  </g>
</svg>
